<?xml version="1.0" encoding="UTF-8"?> <svg xmlns="http://www.w3.org/2000/svg" width="711.742" height="549.131" viewBox="0 0 711.742 549.131"><g transform="translate(-313.972 -131.651)"><path d="M1019.935,460.238c-12.314-34.334-31.707-44.781-50.152-66.805-22.527-26.9-37.722-46.449-31.873-81.043,9.558-56.531,13.65-197.519-136.01-179.09-53.642,6.607-96.03,47.712-126.869,88.744-26.238,34.916-73.439,38-111.433,46.135-46.68,10-94.232,25.11-137.42,47.245C337.23,361.013,310.664,426.552,314.292,510.407c1.095,25.335,4.681,65.239,47.475,111.933,57.762,63.023,141.7,71.464,242.722,42.52,23.125-6.626,44.983-17.017,67.732-24.838a319.592,319.592,0,0,1,73.1-15.872c58.022-5.61,118.168,4.536,173.829-12.788a183.4,183.4,0,0,0,77.745-48.217C1023.478,535.3,1032.932,496.477,1019.935,460.238Z" transform="translate(0 0)" fill="#f1f8fe"></path><g transform="translate(361.767 574.581)"><path d="M336.984,359.914c0,8.281,105.09,15,234.738,15,129.629,0,234.719-6.719,234.719-15s-105.09-15-234.719-15C442.074,344.91,336.984,351.627,336.984,359.914Z" transform="translate(-336.984 -344.91)" fill="#cdccff"></path></g><path d="M467.745,365.917c0,5.184-26.678,9.386-59.588,9.386s-59.588-4.2-59.588-9.386,26.679-9.386,59.588-9.386S467.745,360.733,467.745,365.917Z" transform="translate(37.26 242.186)" fill="#cdccff"></path><ellipse cx="99.981" cy="7.427" rx="99.981" ry="7.427" transform="translate(801.424 602.636)" fill="#cdccff"></ellipse><g transform="translate(367.284 442.343)"><path d="M350.259,302.581,346.42,356.35h51.291l-3.534-53.87Z" transform="translate(-332.339 -258.368)" fill="#d7d7ff"></path><g transform="translate(28.094 47.407)"><g transform="translate(0 0.039)"><path d="M353.167,305.578v0a1.645,1.645,0,0,1,1.757-1.491h0a1.509,1.509,0,1,1,.006,2.976h0A1.647,1.647,0,0,1,353.167,305.578Zm1.759-.926a.952.952,0,1,0,0,1.842h0a.952.952,0,1,0,0-1.842Zm-1.481.924h0Z" transform="translate(-353.167 -304.085)" fill="#eae6ff"></path></g><g transform="translate(17.486)"><path d="M361.586,305.557l.285,0-.285,0a1.372,1.372,0,0,1,.411-.964,1.9,1.9,0,0,1,1.344-.528h.006a1.64,1.64,0,0,1,1.757,1.483,1.368,1.368,0,0,1-.532,1.072,1.922,1.922,0,0,1-1.223.42h0A1.645,1.645,0,0,1,361.586,305.557Zm1.755-.924a1.333,1.333,0,0,0-.941.364.793.793,0,0,0-.247.559h0a1.089,1.089,0,0,0,1.194.918h0a1.364,1.364,0,0,0,.864-.291.819.819,0,0,0,.324-.631,1.084,1.084,0,0,0-1.19-.918Z" transform="translate(-361.586 -304.066)" fill="#eae6ff"></path></g><path d="M362.571,315.934c.164,0,.33,0,.5-.008,3.213-.108,5.664-1.142,7.284-3.076,2.679-3.2,2.073-7.664,2.046-7.853a.561.561,0,0,0-.642-.48.569.569,0,0,0-.484.642c.006.042.559,4.162-1.8,6.968-1.4,1.67-3.572,2.567-6.445,2.663q-4.172.125-6.235-2.177c-2.5-2.787-1.888-7.369-1.882-7.415a.569.569,0,0,0-1.126-.162c-.029.21-.7,5.143,2.158,8.331A8.46,8.46,0,0,0,362.571,315.934Z" transform="translate(-352.591 -303.59)" fill="#eae6ff"></path></g><path d="M363.061,309.839l-6.13,39.977,55.687-.131-5.639-39.949Z" transform="translate(-321.018 -250.554)" fill="#bdc6f9"></path><g transform="translate(0 0)"><path d="M355.81,342.284A11.295,11.295,0,1,0,367.1,353.578,11.3,11.3,0,0,0,355.81,342.284Zm0,16.539a5.243,5.243,0,1,1,5.265-5.244A5.242,5.242,0,0,1,355.81,358.823Z" transform="translate(-334.391 -215.5)" fill="#8784ef"></path><path d="M354.917,342.284a11.295,11.295,0,1,0,11.295,11.294A11.3,11.3,0,0,0,354.917,342.284Zm0,16.539a5.243,5.243,0,1,1,5.265-5.244A5.242,5.242,0,0,1,354.917,358.823Z" transform="translate(-335.354 -215.5)" fill="#9aa3f4"></path><path d="M386.534,342.284a11.295,11.295,0,1,0,11.294,11.294A11.3,11.3,0,0,0,386.534,342.284Zm0,16.539a5.243,5.243,0,1,1,5.267-5.244A5.24,5.24,0,0,1,386.534,358.823Z" transform="translate(-301.302 -215.5)" fill="#8784ef"></path><path d="M385.639,342.284a11.295,11.295,0,1,0,11.295,11.294A11.3,11.3,0,0,0,385.639,342.284Zm0,16.539a5.243,5.243,0,1,1,5.267-5.244A5.24,5.24,0,0,1,385.639,358.823Z" transform="translate(-302.265 -215.5)" fill="#9aa3f4"></path><path d="M454.5,281.241H420.567a10.336,10.336,0,0,0-8.775,4.873L391.28,319.05" transform="translate(-284.027 -281.241)" fill="none" stroke="#9aa3f4" stroke-miterlimit="10" stroke-width="1.5"></path><path d="M355.711,362.5h75.838a8.223,8.223,0,0,0,8.119-6.92l7.847-48.952A8.222,8.222,0,0,0,439.4,297.1H347.864a8.223,8.223,0,0,0-8.119,9.523l7.849,48.952A8.219,8.219,0,0,0,355.711,362.5Z" transform="translate(-339.64 -264.157)" fill="none" stroke="#9aa3f4" stroke-miterlimit="10" stroke-width="1.5"></path><line y2="65.395" transform="translate(53.99 32.947)" fill="none" stroke="#9aa3f4" stroke-miterlimit="10" stroke-width="1.5"></line><line x1="100.338" transform="translate(3.821 65.645)" fill="none" stroke="#9aa3f4" stroke-miterlimit="10" stroke-width="1.5"></line><line x1="6.49" y2="65.395" transform="translate(77.452 32.947)" fill="none" stroke="#9aa3f4" stroke-miterlimit="10" stroke-width="1.5"></line><line x2="5.991" y2="65.395" transform="translate(25.536 32.947)" fill="none" stroke="#9aa3f4" stroke-miterlimit="10" stroke-width="1.5"></line><path d="M435.9,327.158l12.287,18.271a7.486,7.486,0,0,1-6.212,11.662H341.48" transform="translate(-337.659 -231.79)" fill="none" stroke="#9aa3f4" stroke-miterlimit="10" stroke-width="1.5"></path></g></g><g transform="translate(497.827 296.072)"><rect width="104.031" height="27.985" transform="translate(127.753 250.316)" fill="#4a41a3"></rect><rect width="360.633" height="259.452" rx="9.387" transform="translate(0)" fill="#5851bc"></rect><rect width="339.391" height="225.098" rx="5.768" transform="translate(10.073 9.46)" fill="#c4c3fc"></rect><path d="M7.322,0H186.139a7.322,7.322,0,0,1,7.322,7.322v10.32a0,0,0,0,1,0,0H0a0,0,0,0,1,0,0V7.322A7.322,7.322,0,0,1,7.322,0Z" transform="translate(83.038 275.868)" fill="#5851bc"></path><g transform="translate(91.123 25.007)" opacity="0.35"><rect width="237.473" height="159.623" rx="5.01" fill="#fff"></rect></g><g transform="translate(91.122 25.007)" opacity="0.25" style="mix-blend-mode:multiply;isolation:isolate"><g transform="translate(15.738 24.138)"><g transform="translate(6.831 92.466)"><rect width="10.344" height="25.969" fill="#fca70c"></rect></g><g transform="translate(30.141 69.668)"><rect width="10.345" height="48.767" fill="#b1affd"></rect></g><g transform="translate(53.451 74.711)"><rect width="10.344" height="43.724" fill="#fca70c"></rect></g><g transform="translate(76.761 50.024)"><rect width="10.344" height="68.411" fill="#b1affd"></rect></g><g transform="translate(30.141 69.668)" opacity="0.15" style="mix-blend-mode:multiply;isolation:isolate"><rect width="4.748" height="48.767" opacity="0.26"></rect></g><g transform="translate(6.831 92.466)" opacity="0.15" style="mix-blend-mode:multiply;isolation:isolate"><rect width="4.748" height="25.969" opacity="0.26"></rect></g><g transform="translate(76.761 50.024)" opacity="0.62" style="mix-blend-mode:multiply;isolation:isolate"><rect width="4.748" height="68.411" opacity="0.26"></rect></g><g transform="translate(53.451 74.711)" opacity="0.15" style="mix-blend-mode:multiply;isolation:isolate"><rect width="4.748" height="43.724" opacity="0.26"></rect></g><g transform="translate(0 27.004)"><path d="M546.522,346.059H453.943V247.48h1.412v97.167h91.166Z" transform="translate(-453.943 -247.48)" fill="#d5dbda"></path></g><g transform="translate(8.566 35.339)"><path d="M459.011,296.458l-.943-1.051,24.218-21.746,22.432,4.873,24.29-27.041,1.051.944-24.839,27.652-22.528-4.894Z" transform="translate(-458.068 -251.492)" fill="#d5dbda"></path></g><g transform="translate(75.61 31.344)"><path d="M497.2,258.5l-6.849-6.568,8.842-2.366Z" transform="translate(-490.347 -249.569)" fill="#d5dbda"></path></g><g transform="translate(101.345 90.624)"><rect width="7.104" height="7.104" fill="#b1affd"></rect><g transform="translate(0 12.447)"><rect width="7.104" height="7.104" fill="#fca70c"></rect></g><g transform="translate(9.061 15.514)"><rect width="22.518" height="4.037" fill="#efefef"></rect></g><g transform="translate(9.061 3.067)"><rect width="22.518" height="4.037" fill="#efefef"></rect></g></g><g transform="translate(143.123 90.624)"><rect width="7.104" height="7.104" fill="#b1affd"></rect><g transform="translate(0 12.447)"><rect width="7.104" height="7.104" fill="#fca70c"></rect></g><g transform="translate(9.061 15.514)"><rect width="22.518" height="4.037" fill="#efefef"></rect></g><g transform="translate(9.061 3.067)"><rect width="22.518" height="4.037" fill="#efefef"></rect></g></g><g transform="translate(180.743 90.624)"><rect width="7.104" height="7.104" fill="#b1affd"></rect><g transform="translate(0 12.447)"><rect width="7.104" height="7.104" fill="#fca70c"></rect></g><g transform="translate(9.061 15.514)"><rect width="14.819" height="4.037" fill="#efefef"></rect></g><g transform="translate(9.061 3.067)"><rect width="14.819" height="4.037" fill="#efefef"></rect></g></g><g transform="translate(102.675 22.749)"><rect width="101.948" height="1.854" fill="#efefef"></rect></g><rect width="204.622" height="4.242" fill="#efefef"></rect><g transform="translate(102.369 28.514)"><rect width="102.253" height="1.853" fill="#efefef"></rect></g><g transform="translate(102.369 16.985)"><rect width="102.253" height="1.853" fill="#efefef"></rect></g><g transform="translate(102.369 34.278)"><rect width="102.253" height="1.853" fill="#efefef"></rect></g><g transform="translate(102.369 40.042)"><rect width="102.253" height="1.853" fill="#efefef"></rect></g><g transform="translate(102.369 45.806)"><rect width="102.253" height="1.854" fill="#efefef"></rect></g><g transform="translate(102.369 51.57)"><rect width="102.253" height="1.853" fill="#efefef"></rect></g><g transform="translate(102.369 57.334)"><rect width="102.253" height="1.853" fill="#efefef"></rect></g><g transform="translate(102.369 63.098)"><rect width="102.253" height="1.853" fill="#efefef"></rect></g><g transform="translate(114.888 68.862)"><rect width="89.735" height="1.853" fill="#efefef"></rect></g></g><path d="M673.434,222.856H456.772a10.405,10.405,0,0,0-10.406,10.406v9.107H683.839v-9.107A10.405,10.405,0,0,0,673.434,222.856Z" transform="translate(-446.366 -222.856)" fill="#7a7ae5"></path><path d="M549.108,229.28a3,3,0,1,1-3-3A3,3,0,0,1,549.108,229.28Z" transform="translate(-342.179 -219.167)" fill="#cfcfff"></path><circle cx="3" cy="3" r="3" transform="translate(213.159 7.113)" fill="#cfcfff"></circle><circle cx="3" cy="3" r="3" transform="translate(225.387 7.113)" fill="#cfcfff"></circle></g><g transform="translate(28.041 54.099)"><g transform="translate(0 6.216)"><rect width="237.473" height="159.623" rx="5.01" fill="#c4c3fc" opacity="0.55" style="mix-blend-mode:multiply;isolation:isolate"></rect></g><g transform="translate(4.818)"><rect width="237.473" height="159.623" rx="5.01" fill="#fff"></rect></g><g transform="translate(20.555 24.138)"><g transform="translate(6.831 92.466)"><rect width="10.344" height="25.969" fill="#fca70c"></rect></g><g transform="translate(30.141 69.668)"><rect width="10.345" height="48.767" fill="#b1affd"></rect></g><g transform="translate(53.451 74.711)"><rect width="10.344" height="43.724" fill="#fca70c"></rect></g><g transform="translate(76.761 50.024)"><rect width="10.344" height="68.411" fill="#b1affd"></rect></g><g transform="translate(30.141 69.668)" opacity="0.15" style="mix-blend-mode:multiply;isolation:isolate"><rect width="4.748" height="48.767" opacity="0.26"></rect></g><g transform="translate(6.831 92.466)" opacity="0.15" style="mix-blend-mode:multiply;isolation:isolate"><rect width="4.748" height="25.969" opacity="0.26"></rect></g><g transform="translate(76.761 50.024)" opacity="0.62" style="mix-blend-mode:multiply;isolation:isolate"><rect width="4.748" height="68.411" opacity="0.26"></rect></g><g transform="translate(53.451 74.711)" opacity="0.15" style="mix-blend-mode:multiply;isolation:isolate"><rect width="4.748" height="43.724" opacity="0.26"></rect></g><g transform="translate(0 35.811)"><path d="M518.469,355.5H425.891V265.727H427.3v88.361h91.166Z" transform="translate(-425.891 -265.727)" fill="#d5dbda"></path></g><g transform="translate(8.566 35.339)"><path d="M430.958,310.465l-.943-1.051,24.218-21.746,22.432,4.873,24.29-27.041,1.051.944L477.166,294.1,454.639,289.2Z" transform="translate(-430.015 -265.499)" fill="#d5dbda"></path></g><g transform="translate(75.61 31.344)"><path d="M469.144,272.51l-6.849-6.568,8.842-2.366Z" transform="translate(-462.295 -263.576)" fill="#d5dbda"></path></g><g transform="translate(101.345 90.624)"><rect width="7.104" height="7.104" fill="#b1affd"></rect><g transform="translate(0 12.447)"><rect width="7.104" height="7.104" fill="#fca70c"></rect></g><g transform="translate(9.061 15.514)"><rect width="22.519" height="4.037" fill="#efefef"></rect></g><g transform="translate(9.061 3.067)"><rect width="22.519" height="4.037" fill="#efefef"></rect></g></g><g transform="translate(143.123 90.624)"><rect width="7.104" height="7.104" fill="#b1affd"></rect><g transform="translate(0 12.447)"><rect width="7.104" height="7.104" fill="#fca70c"></rect></g><g transform="translate(9.061 15.514)"><rect width="22.518" height="4.037" fill="#efefef"></rect></g><g transform="translate(9.061 3.067)"><rect width="22.518" height="4.037" fill="#efefef"></rect></g></g><g transform="translate(180.743 90.624)"><rect width="7.104" height="7.104" fill="#b1affd"></rect><g transform="translate(0 12.447)"><rect width="7.104" height="7.104" fill="#fca70c"></rect></g><g transform="translate(9.061 15.514)"><rect width="14.818" height="4.037" fill="#efefef"></rect></g><g transform="translate(9.061 3.067)"><rect width="14.818" height="4.037" fill="#efefef"></rect></g></g><g transform="translate(102.675 22.749)"><rect width="101.947" height="1.854" fill="#efefef"></rect></g><rect width="204.622" height="4.242" fill="#efefef"></rect><g transform="translate(102.369 28.514)"><rect width="102.253" height="1.853" fill="#efefef"></rect></g><g transform="translate(102.369 16.985)"><rect width="102.253" height="1.853" fill="#efefef"></rect></g><g transform="translate(102.369 34.277)"><rect width="102.253" height="1.853" fill="#efefef"></rect></g><g transform="translate(102.369 40.042)"><rect width="102.253" height="1.853" fill="#efefef"></rect></g><g transform="translate(102.369 45.806)"><rect width="102.253" height="1.854" fill="#efefef"></rect></g><g transform="translate(102.369 51.57)"><rect width="102.253" height="1.853" fill="#efefef"></rect></g><g transform="translate(102.369 57.334)"><rect width="102.253" height="1.853" fill="#efefef"></rect></g><g transform="translate(102.369 63.098)"><rect width="102.253" height="1.853" fill="#efefef"></rect></g><g transform="translate(114.888 68.862)"><rect width="89.735" height="1.853" fill="#efefef"></rect></g></g><path d="M645.382,236.863H428.72a10.405,10.405,0,0,0-10.406,10.406v9.107H655.787v-9.107A10.405,10.405,0,0,0,645.382,236.863Z" transform="translate(-413.496 -236.863)" fill="#a4a4f7"></path><path d="M521.056,243.287a3,3,0,1,1-3-3A3,3,0,0,1,521.056,243.287Z" transform="translate(-309.308 -233.174)" fill="#cfcfff"></path><path d="M526.946,243.287a3,3,0,1,1-3-3A3,3,0,0,1,526.946,243.287Z" transform="translate(-302.969 -233.174)" fill="#cfcfff"></path><path d="M532.831,243.287a3,3,0,1,1-3-3A3,3,0,0,1,532.831,243.287Z" transform="translate(-296.627 -233.174)" fill="#cfcfff"></path></g><path d="M601.422,210.9H545.811q.57,27.048.918,54.1a21.445,21.445,0,0,1-1.005,8.152l-.085,0c-.737-.04-.411.191-.665,1.51,0,.019-.013.042-.017.06-2.249,3.672-6.638,5.68-10.91,6.625a1.084,1.084,0,0,0,.069.6,1.367,1.367,0,0,0-.43,1.68c.26.6,3.456,1.419,7.8.951a20.706,20.706,0,0,0,4.816-1.336,7.477,7.477,0,0,0,1.774-1.209,6.128,6.128,0,0,0,1.626-.392l.177.166,4.976-2.166s-.544-3.14-.974-4.775a2.846,2.846,0,0,0-.328-.769,228.077,228.077,0,0,0,9.764-34.7c-.905,14.649-6.168,44.405-6.559,45.429a7.638,7.638,0,0,1-6.324,4.441c-1.178.1-6.97-.237-6.345,2.428.15.636,3.157,2,7.514,2.287a20.638,20.638,0,0,0,4.974-.48,9.229,9.229,0,0,0,3.1-1.689l.671.9,5.276-1.271s-.008-1.373-.042-3.026a6.731,6.731,0,0,0-1.13-3.217l.073-3,2.924-.345s5.874-19,8.663-25.459a56.881,56.881,0,0,0,3.157-8.094,58.573,58.573,0,0,0,1.211-10.127,89.547,89.547,0,0,1,3.4-18.283,2.7,2.7,0,0,1,.5-1.068,2.833,2.833,0,0,1,1.923-.671c7.475-.685,10.9.586,15.579-.864,6.167-1.913,6.821-4.711,7.122-4.846A19.407,19.407,0,0,0,601.422,210.9Z" transform="translate(-261.345 -210.721)" fill="#5851bc" opacity="0.35" style="mix-blend-mode:multiply;isolation:isolate"></path><path d="M597.88,304.277V239.783c-9.618,12.591-19.135,23.875-28.753,36.465-4.175,5.46-20.518,23.555-9.369,30.816,2.845,1.853,7.8,1.767,10.277,1.942,8.893.631,17.706-1.83,26.352-4.274C596.883,304.592,597.384,304.441,597.88,304.277Z" transform="translate(-237.247 -179.619)" fill="#5851bc" opacity="0.35" style="mix-blend-mode:multiply;isolation:isolate"></path><path d="M593.763,280.863l-5.352.413-.1-.3-4.167.322-1.254-3.545a5.378,5.378,0,0,0-5.253-3.334,2.871,2.871,0,0,0-2.663,3.982c.218.613.827,2.332,1.244,3.51l-4.385.339.094.305-9.031.7c-1.427.008-3.535,1.851-3.078,3.138l.073.189a1.869,1.869,0,0,0,.041.334l7.811,22.041-.2,92.834h9.066l17.151-66.683Zm-14.088-.69a3.015,3.015,0,0,1-2.947-1.871,1.608,1.608,0,0,1,1.493-2.233,3.015,3.015,0,0,1,2.945,1.869A1.61,1.61,0,0,1,579.675,280.174Z" transform="translate(-233.13 -142.336)" fill="#5851bc" opacity="0.35" style="mix-blend-mode:multiply;isolation:isolate"></path><path d="M425.159,261.175c-2.017,2.224-4.395,6.962-5.363,9-1.022,2.011-2.127,3.149-5,4.5-3.967,1.815-8.218,3.552-12.3,5.157v10.532c8.306-5,15.824-9.656,15.951-9.706,6.349,2.428,11.66-2.852,13.363-6.659.764-1.709-.382-2.407-.434-3.219-.029-.424.517-2.9.434-3.213-.5-2.224-6.468-.28-5.971-1.34a7.588,7.588,0,0,1,2.486-3.724c2.924-2,5.165-4.21,5.165-5.049C433.485,256.009,425.85,260.415,425.159,261.175Z" transform="translate(-402.493 -160.898)" fill="#5851bc" opacity="0.35" style="mix-blend-mode:multiply;isolation:isolate"></path></g><g transform="translate(842.224 449.874)"><rect width="140.214" height="162.149" rx="6.949" transform="translate(0 0)" fill="#a2a7f4"></rect><g transform="translate(12.97 16.971)"><rect width="118.583" height="33.305" rx="1.773" fill="#9090f4"></rect><rect width="30.491" height="21.142" rx="1.773" transform="translate(0 45.116)" fill="#9090f4"></rect><rect width="30.491" height="21.142" rx="1.773" transform="translate(44.046 45.116)" fill="#9090f4"></rect><rect width="30.491" height="21.142" rx="1.773" transform="translate(88.091 45.116)" fill="#9090f4"></rect><rect width="30.491" height="21.141" rx="1.773" transform="translate(0 79.103)" fill="#9090f4"></rect><rect width="30.491" height="21.141" rx="1.773" transform="translate(44.046 79.103)" fill="#9090f4"></rect><rect width="30.491" height="21.142" rx="1.773" transform="translate(0 113.089)" fill="#9090f4"></rect><rect width="30.491" height="21.142" rx="1.773" transform="translate(44.046 113.089)" fill="#9090f4"></rect><rect width="30.491" height="55.128" rx="1.773" transform="translate(88.091 79.103)" fill="#9090f4"></rect></g><g transform="translate(10.815 14.817)" opacity="0.45"><path d="M573.518,295.683A3.683,3.683,0,0,1,577.2,292H688.419a3.683,3.683,0,0,1,3.682,3.682v25.939a3.682,3.682,0,0,1-3.682,3.682H577.2" transform="translate(-573.518 -292.001)" fill="#e2deff"></path><rect width="30.491" height="21.142" rx="1.773" transform="translate(0.001 45.116)" fill="#e2deff"></rect><rect width="30.492" height="21.142" rx="1.773" transform="translate(44.046 45.116)" fill="#e2deff"></rect><rect width="30.491" height="21.142" rx="1.773" transform="translate(88.092 45.116)" fill="#e2deff"></rect><rect width="30.491" height="21.142" rx="1.773" transform="translate(0.001 79.102)" fill="#e2deff"></rect><rect width="30.492" height="21.142" rx="1.773" transform="translate(44.046 79.102)" fill="#e2deff"></rect><rect width="30.491" height="21.142" rx="1.773" transform="translate(0.001 113.088)" fill="#e2deff"></rect><rect width="30.492" height="21.142" rx="1.773" transform="translate(44.046 113.088)" fill="#e2deff"></rect></g><rect width="30.491" height="55.128" rx="1.773" transform="translate(98.907 93.919)" fill="#fca70c"></rect><path d="M618.086,383.686V335.924a3.682,3.682,0,0,1,3.683-3.682H644.9a3.672,3.672,0,0,1,1.286.243,3.675,3.675,0,0,0-3.439-2.4H619.615a3.683,3.683,0,0,0-3.682,3.685v47.762a3.676,3.676,0,0,0,2.4,3.439A3.667,3.667,0,0,1,618.086,383.686Z" transform="translate(-517.025 -236.168)" fill="#f9c110"></path><path d="M568.311,314.3l3.757,9.884h15.714s-1.09,42.738-1.159,50.748,6.592,63.279,6.592,63.279h9.1l-.949-69.68,12.908-35.749s9.71,47.859,13.735,55.866,25.653,49.563,25.653,49.563h8.349l-21.44-91.644-9.205-31.844-46.4-21.69-16.653,1.641" transform="translate(-568.311 -276.067)" fill="#5851bc" opacity="0.35" style="mix-blend-mode:multiply;isolation:isolate"></path></g><g transform="translate(520.952 523.493)"><path d="M420.953,320.441l-7.326,75.9,71.982.016-6.962-76.044Z" transform="translate(-413.627 -320.313)" fill="#fca70c"></path><g transform="translate(19.878 4.726)"><g transform="translate(0 0.06)"><path d="M423.2,324.906h0a2.52,2.52,0,0,1,2.694-2.289h0a2.315,2.315,0,1,1,.008,4.567h0A2.522,2.522,0,0,1,423.2,324.906Zm2.7-1.419a1.46,1.46,0,1,0,0,2.825h0a1.46,1.46,0,1,0,0-2.825Zm-2.272,1.419h0Z" transform="translate(-423.198 -322.617)" fill="#5851bc"></path></g><g transform="translate(26.828)"><path d="M436.115,324.877l.434,0-.434,0a2.09,2.09,0,0,1,.631-1.479,2.9,2.9,0,0,1,2.058-.81h.012a2.517,2.517,0,0,1,2.7,2.274,2.1,2.1,0,0,1-.816,1.645,2.958,2.958,0,0,1-1.876.646h0A2.523,2.523,0,0,1,436.115,324.877Zm2.692-1.419a2.039,2.039,0,0,0-1.443.557,1.21,1.21,0,0,0-.378.858h0a1.668,1.668,0,0,0,1.83,1.408h0a2.1,2.1,0,0,0,1.325-.447,1.261,1.261,0,0,0,.5-.968,1.664,1.664,0,0,0-1.828-1.408Z" transform="translate(-436.115 -322.588)" fill="#5851bc"></path></g></g><g transform="translate(21.587 6.134)"><path d="M437.632,340.8c.251,0,.5,0,.766-.012,4.929-.164,8.688-1.753,11.172-4.719,4.112-4.912,3.182-11.76,3.14-12.048a.872.872,0,0,0-1.726.247c.008.064.858,6.387-2.758,10.692-2.152,2.563-5.479,3.938-9.888,4.085-4.268.127-7.448-.98-9.566-3.338-3.842-4.279-2.9-11.309-2.887-11.38a.873.873,0,0,0-1.728-.247c-.044.32-1.074,7.89,3.311,12.784C429.812,339.473,433.228,340.8,437.632,340.8Z" transform="translate(-424.021 -323.266)" fill="#5851bc"></path></g></g><g transform="translate(321.583 333.957)"><path d="M391.075,239.083c2.785,4.81.38,11.384,3.19,16.179,1.126,1.919,3.03,3.429,3.57,5.587a4.87,4.87,0,0,1-7,5.485,5.959,5.959,0,0,0-1.082-.536c-1.39-.407-2.648.827-3.842,1.643a5.864,5.864,0,0,1-5.059.9c-2.158-.723-3.493-2.9-4.212-5.057-2.011-6.036-.582-12.645,1.275-18.73.928-3.041,2.3-6.414,5.282-7.517" transform="translate(-255.148 -220.465)" fill="#5045af"></path><path d="M450.272,273.233c.046.669,1.065,1.244.386,2.652-1.512,3.14-6.225,7.492-11.862,5.492-.245.087-31.138,17.945-33.518,17.945S386.686,283.98,381.383,265c-1.265-4.53-.773-9.857,3.471-12.15a10.038,10.038,0,0,1,5.834,5.192c3.512,6.63,14.03,28.583,16.36,29.412,2.906-1.936,17.052-6.14,28.508-11.006,2.553-1.113,3.533-2.052,4.441-3.712.86-1.68,2.968-5.587,4.76-7.421.613-.627,7.392-4.258,7.392-3.066,0,.689-1.99,2.517-4.584,4.162a6.213,6.213,0,0,0-2.206,3.07c-.442.872,4.858-.729,5.3,1.1C450.733,270.845,450.249,272.884,450.272,273.233Z" transform="translate(-249.641 -203.435)" fill="#ffb9b0"></path><path d="M384.158,252.577a13.915,13.915,0,0,1,9.226,7.155,28.843,28.843,0,0,1,1.257,2.883c1.645,4.187,3.909,7.975,5.554,12.161-2.249,1.815-4.972,2.65-7.265,3.5a15.521,15.521,0,0,1-6.763.908,3.423,3.423,0,0,1-1.138-.251,3.749,3.749,0,0,1-1.184-1.018q-1.056-1.212-2.056-2.472a6.787,6.787,0,0,1-1.381-2.364,7.176,7.176,0,0,1,.324-3.682" transform="translate(-250.18 -203.725)" fill="#7762ef"></path><path d="M385.06,258.341a1.432,1.432,0,0,0-.53-.451.96.96,0,0,0-1.111.492,2.55,2.55,0,0,0-.231,1.29,17.6,17.6,0,0,0,.789,5.012l-.525,8.829.012.019a15.5,15.5,0,0,0,6.324-.922c.955-.355,1.986-.723,3.024-1.142C391.752,266.491,388.36,262.276,385.06,258.341Z" transform="translate(-247.04 -198.055)" fill="#7762ef" opacity="0.35" style="mix-blend-mode:multiply;isolation:isolate"></path><path d="M388.586,249.193s-.118,5.529.731,5.89a21.667,21.667,0,0,0,3.572,1.1l.056,11.44-15.253-2.3-10.493-5.84s10.906-3.616,11-4.7-.6-7.207-.6-7.207" transform="translate(-264.258 -209.107)" fill="#ffb9b0"></path><g transform="translate(97.77 121.973)"><path d="M367.834,339.329l-.008.044c-4.173,19.785-2.185,46.966-3.116,61.86.218.06,5.67.744,5.67.744s12.906-62.78,15.249-74.8a17.009,17.009,0,0,0,.3-2.328c.563-9.047-7.591-9.508-12.185-2.029a31.307,31.307,0,0,0-2.1,4.038c-.26.59-.5,1.188-.752,1.826l0,.021a58.893,58.893,0,0,0-2.023,6.316l-.048.228c-.191.634-.347,1.275-.5,1.919l-.031.145C368.12,337.97,367.979,338.639,367.834,339.329Z" transform="translate(-364.71 -255.674)" fill="#ffb9b0"></path><path d="M390.485,300.426c-.154,1.637-1.026,9.427-2.075,18.616-.9,7.726-1.876,16.435-2.64,23.332-.567,5.172-.982,9.3-1.157,11.238a25.177,25.177,0,0,1-.459,3.34V357c-1.965,9.035-8.206,9.56-12,7.465a7.582,7.582,0,0,1-1.441-.982,4.85,4.85,0,0,1-1.616-2.663v-.021c-.239-1.857-.48-4.389-.7-7.4v-.044c-.021-.021-.021-.021-.021-.044l-.023-.064c-.459-5.872-.852-13.423-1.2-20.778-.413-9.037-.677-17.745-.741-22.655-.023-.285-.023-.546-.044-.808-.067-15.058,13.772-24.705,22.371-20.034a2.194,2.194,0,0,1,.305.152,3.238,3.238,0,0,0,.328.2c.982.654,1.309,2.9,1.331,5.477C390.746,296.671,390.616,298.723,390.485,300.426Z" transform="translate(-362.926 -287.783)" fill="#ffb9b0"></path><path d="M369.6,323.273l-1.053-3.944c0,.021,0,.021.01.048a63.065,63.065,0,0,1-1.309,13.772l-.048.228c-.152.623-.309,1.286-.5,1.919l-.031.145a10.74,10.74,0,0,0-.447,2.021l-.008.044c-.012,1.788,3.8-6.154,4.669-8.011.108-.237.174-.372.174-.372l-1.03-4.137Z" transform="translate(-363.095 -253.808)" fill="#ffb9b0"></path></g><g transform="translate(122.691 121.315)"><path d="M382.2,342.883v.044c-.395,20.716,6,45.074,7.7,60.122.206.006,5.226-.671,5.226-.671s.955-63.466,1.022-76.006a18.982,18.982,0,0,0-.127-2.391c-1.028-9.137-8.441-7.57-11.3,1.007a37.082,37.082,0,0,0-1.207,4.538c-.131.652-.247,1.306-.363,2l0,.023c-.349,2.133-.6,4.4-.748,6.783l0,.241c-.064.677-.1,1.354-.125,2.031l0,.154C382.229,341.46,382.217,342.16,382.2,342.883Z" transform="translate(-370.812 -254.791)" fill="#ffb9b0"></path><path d="M392.4,367.109a5.4,5.4,0,0,1-1.456-.636,4.149,4.149,0,0,1-1.9-2.243l0-.023c-.544-1.784-1.192-4.276-1.911-7.217-.017-.025-.017-.025-.015-.048l-.031-.075c-1.4-5.714-3.057-13.128-4.6-20.344-1.9-8.881-3.624-17.484-4.509-22.367-.071-.264-.835-3.82-.887-4.081-2.654-15.133,9.149-24.992,17.727-22.109.122.042.228.079.334.116,1.726.692,2.2,6.758,2.592,10.858s3.3,46.592,4.031,54.275a30.7,30.7,0,0,1,.15,3.444C401.718,366.16,396.183,368.241,392.4,367.109Z" transform="translate(-376.709 -287.466)" fill="#ffb9b0"></path><path d="M383.336,324.579l-1.618-3.662c0,.023,0,.023.017.046a70.428,70.428,0,0,1,1.161,14.022l0,.241c-.031.656-.06,1.356-.125,2.031l0,.154a12.472,12.472,0,0,0-.058,2.123v.044c.293,1.782,2.372-7.064,2.841-9.128.056-.262.094-.413.094-.413l-1.63-3.859Z" transform="translate(-371.314 -251.441)" fill="#ffb9b0"></path></g><path d="M375.046,280.769s-11.108,14.111-9.967,28.29c.474,5.9,1.207,11.1,1.878,17.039.1.856,1.429,13.324,1.053,13.336,0,0,22.888,7.072,45-2.193,0-1.512,1.77-30.531-10.175-58.2A192.484,192.484,0,0,1,375.046,280.769Z" transform="translate(-266.632 -175.224)" fill="#2699fb"></path><path d="M409.027,277.8c-.087,4.042-2.239,6.5-5.323,9.909-.39.606-1.348,9.618-1.674,15.608-.17,3.118,1.161,5.076,0,5.332-4.441,3.874-20.441,7.01-27.781,1.724.768-6.515-2.15-20.869-4.119-28.168-.307-1.124-.577-2.073-.822-2.8-1.834-5.543-5.145-23.32-2.694-24.095.488-.154,1.246-.353,2.125-.619,3.836-1.157,9.5-3.145,9.5-3.145s3.325,9.837,11.969,11.025c4.719-1.944,4.3-7.911,4.247-10.655,1.543.426,2.222.849,7.006,2.266,1.34,1.934.183,5.967,2.349,11.982C404.354,267.659,409.133,272.878,409.027,277.8Z" transform="translate(-265.828 -204.835)" fill="#6c63ff"></path><path d="M397.051,238.537s.874,10.686-.949,16.288c-1.35,4.148-6.893,8.019-11.529,7.967-12.761,0-15.05-17.332-14.983-18.171s18.821-8.113,18.821-8.113Z" transform="translate(-261.686 -221.03)" fill="#ffb9b0"></path><path d="M383.456,288.237" transform="translate(-246.751 -165.32)" fill="#f2f2f2"></path><g transform="translate(139.782 268.125)"><path d="M404.819,365.595c-4.542.818-9.4-.459-11.386-.114-1.645.28-5.87,1.352-7.45-.069s-1.327-6.436.49-7.105a6.52,6.52,0,0,0,1.18.285,12.42,12.42,0,0,0,5.377-.44c3.456,1.423,3.583,2.044,7.512,2.837a25.537,25.537,0,0,1,5.006,1.518C407.243,363.281,407.378,365.138,404.819,365.595Z" transform="translate(-384.938 -358.151)" fill="#5045af"></path></g><g transform="translate(94.945 264.623)"><path d="M379.038,369.411c-4.551-.766-7.431-3.284-9.421-3.631-1.643-.293-5.782-1.1-6.216-2.8-.322-1.261.928-6.505,2.864-6.52a6.634,6.634,0,0,0,1.014.667,12.446,12.446,0,0,0,5.209,1.4c2.773,2.507,2.683,3.134,6.112,5.207a25.523,25.523,0,0,1,4.2,3.122C384.13,368.164,381.6,369.843,379.038,369.411Z" transform="translate(-363.35 -356.465)" fill="#5045af"></path></g><g transform="translate(44.313 49.014)"><path d="M338.972,268.514l4.179-4.972,25.5,22.8S381.1,269.771,384.52,264.6c3.766-5.689,7.159-10.555,12.665-11.506,1.269.783-.428,21.216-1.09,21.71-7.693,5.755-22.662,24.319-27.422,25.285C363.175,301.2,338.972,268.514,338.972,268.514Z" transform="translate(-338.972 -252.185)" fill="#ffb9b0"></path><path d="M378.483,252.655s-5.209.066-7.448,1.911-12.942,18.807-12.942,18.807a7.541,7.541,0,0,0,2.814,5.892,15.621,15.621,0,0,0,7.708,3.336s5.371-5.346,8.4-7.778c1.886-1.516,2.073,2.235,2.073,2.235l9.471-9.247Z" transform="translate(-318.386 -252.655)" fill="#7762ef"></path></g><path d="M369.036,276.585c-.285-.152-.563-.316-.833-.478a7.018,7.018,0,0,1-3.421-3.452c-.887-2.395-1.313-6.069-.073-8.391.841-1.572,2.42-2.6,3.5-4.017a12.4,12.4,0,0,0,2.065-6.977,46.028,46.028,0,0,1,.5-7.363c.883-4.117,2.056-8.038,5.23-10.69,5.082-4.249,15.27-6.767,20.811-2.029,1.007.862,1.2,1.554,2.565,1.686a10.008,10.008,0,0,1,4.65,1.358c1.817,1.051,4.023,2.532,3.768,4.918a8.55,8.55,0,0,1-3.466,5.045,4.2,4.2,0,0,1-1.959.438c-2.16.042-3.952-1.362-6.073-1.136a4.037,4.037,0,0,0-2.658,1.477c-.764.943-.66,2.258-1.552,3.138-1.431,1.414-3.649,1.294-5.344,2.214a1.792,1.792,0,0,0-.731.6,1.925,1.925,0,0,0-.185.908l-.1,2.677c-.841-.37-.928-1.566-1.622-2.168a1.928,1.928,0,0,0-2.43.156,4.076,4.076,0,0,0-1.171,2.33,6.7,6.7,0,0,0,.471,3.2c.555,1.819,2.114,3.458,3.373,2.256.914,1.344-.085,3.587-.118,5.105-.027,1.2,0,3.593,1.121,4.384,1.036.729,2.677.177,2.742,2.052.056,1.716-1.661,3.057-3.365,3.267a12.622,12.622,0,0,1-5.037-.879,7.9,7.9,0,0,0-5.049-.247,15.276,15.276,0,0,1-2.835,1.275A4.44,4.44,0,0,1,369.036,276.585Z" transform="translate(-267.772 -227.363)" fill="#5045af"></path><path d="M354.136,268.781s-5.992-4.8-6.4-6.119-.5-2.723-.991-4.008a7.5,7.5,0,0,0-4.158-4.137c-1.5-.619-.766-1.128-2.376-.816-2.428.469-3.581,2.85-4.551,4.711-4.139,7.932,7.2,9.434,7.6,9.45.827.033,5.045,4.814,5.045,4.814" transform="translate(-299.204 -202.617)" fill="#ffb9b0"></path><g transform="translate(14.537 11.321)"><path d="M335.233,267.231l4.1,2.739a1.131,1.131,0,0,0,1.6-.361L349.95,254.5l-5.344-3.012-9.679,14.163A1.131,1.131,0,0,0,335.233,267.231Z" transform="translate(-313.764 -216.217)" fill="#8484ef"></path><path d="M328.83,248.3l1.412.962,5.712-8.324-1.412-.962c-2.008-1.371-4.916-.617-6.495,1.682h0C326.47,243.959,326.819,246.933,328.83,248.3Z" transform="translate(-322.024 -229.349)" fill="#c4c4f7"></path><path d="M325.4,262.887l26.273,3.989,6-8.745-13.258-22.955Z" transform="translate(-323.815 -233.787)" fill="#c4c4f7"></path><path d="M326.206,253.444l24.594,3.625,2.392-3.486-20.7-9.3Z" transform="translate(-322.944 -223.979)" fill="#bbbbf2"></path><path d="M343.892,257.572h0a3.342,3.342,0,0,0,4.542-1.176l1.065-1.556a3.316,3.316,0,0,0-.546-4.644h0a3.343,3.343,0,0,0-4.542,1.176l-1.068,1.556A3.314,3.314,0,0,0,343.892,257.572Z" transform="translate(-305.23 -218.124)" fill="#c4c4f7"></path><path d="M344.41,250.689l-1.063,1.554a3.107,3.107,0,1,0,5.089,3.466l1.065-1.552a3.453,3.453,0,0,0,.218-.366,3.053,3.053,0,1,1-5.045-3.437A3.526,3.526,0,0,0,344.41,250.689Z" transform="translate(-305.229 -217.439)" fill="#bbbbf2"></path><path d="M325.362,264.469h0a1.961,1.961,0,0,0,2.667-.69l18.024-26.263a1.949,1.949,0,0,0-.322-2.729h0a1.96,1.96,0,0,0-2.667.692L325.04,261.742A1.949,1.949,0,0,0,325.362,264.469Z" transform="translate(-324.635 -234.507)" fill="#a4a4f7"></path><path d="M346.191,234.883l-15.01,21.873a1.963,1.963,0,0,1-2.667.692,1.63,1.63,0,0,1-.461-.5l-3.014,4.391a1.825,1.825,0,1,0,2.989,2.037l18.024-26.265A2.068,2.068,0,0,0,346.191,234.883Z" transform="translate(-324.635 -234.102)" fill="#8484ef"></path><path d="M340.311,259.76l1.7,1.159c2.509,1.711,6.139.771,8.108-2.1l1.691-2.461c1.969-2.87,1.531-6.584-.978-8.293l-1.7-1.159c-2.509-1.711-6.139-.771-8.108,2.1l-1.691,2.461C337.364,254.337,337.8,258.051,340.311,259.76Z" transform="translate(-310.134 -222.073)" fill="#a4a4f7"></path><path d="M340.253,248.594l-2.53,3.687a1.871,1.871,0,0,0,.309,2.625l7.911,5.392a1.889,1.889,0,0,0,2.567-.665l2.53-3.687a1.888,1.888,0,0,1-2.567.665l-7.911-5.39A1.876,1.876,0,0,1,340.253,248.594Z" transform="translate(-310.961 -219.335)" fill="#8484ef"></path></g><path d="M335.445,261.6a8.265,8.265,0,0,1,1.444-6.175,13.281,13.281,0,0,1,1.473-1.587,2.034,2.034,0,0,1,.887-.586,2.8,2.8,0,0,1,1.921.434,3.5,3.5,0,0,1,1.574,1.564,2.086,2.086,0,0,1-1.155,2.509.434.434,0,0,0-.212.21c-.048.143.052.326.145.488a3.567,3.567,0,0,1,.608,2.05,1.2,1.2,0,0,1-1.41,1.055c-.309-.05-.723-.17-.825.066a.5.5,0,0,0-.006.268,2.195,2.195,0,0,1-.478,1.73.606.606,0,0,1-.38.239,1.006,1.006,0,0,1-.4-.054,5.417,5.417,0,0,1-1.4-.623" transform="translate(-298.561 -203.051)" fill="#ffb9b0"></path><path d="M343.571,263.007a31.473,31.473,0,0,1-.49-3.223,7.331,7.331,0,0,0-3.466-6.027.878.878,0,0,0-.563-.162.621.621,0,0,0-.459.54,1.669,1.669,0,0,0,.11.744c.243.762,1.325,2.193.991,2.978a8.915,8.915,0,0,0-.856,3.736c.037,1.14.569,2.991,1.919,3.178" transform="translate(-295.079 -202.636)" fill="#ffb9b0"></path><line x2="5.286" y2="12.463" transform="translate(18.025 0)" stroke-width="0.75" stroke="#c4c4f7" stroke-linecap="round" stroke-linejoin="round" fill="none"></line><line x2="10.833" y2="8.119" transform="translate(6.987 11.084)" stroke-width="0.75" stroke="#c4c4f7" stroke-linecap="round" stroke-linejoin="round" fill="none"></line><line x2="13.473" y2="1.323" transform="translate(0 26.182)" stroke-width="0.75" stroke="#c4c4f7" stroke-linecap="round" stroke-linejoin="round" fill="none"></line></g><g transform="translate(728.264 177.827)"><g transform="translate(0 5.636)"><path d="M538.4,187.11s-4.839-3.414-5.012-4.848-3.545-7.244-4.625-8.4-6.752-3.122-7.961-3.3-8.154.417-7.29,1.365,5.358.6,6.223,1.122l.864.517s-.864,1.174-.519,1.882-1.483,1.8-.791,3.012-.28,1.128.339,2.391c1.022,2.083,3.637,3.244,4.328,2.675.519,1.234,2.5,3.751,4.362,3.579s6.376,4.06,6.376,4.06" transform="translate(-513.442 -141.587)" fill="#ffb9b0"></path><path d="M570.384,166.819c.164,3.25-.066,8.91.864,9.749s3.934.708,3.934.708-10.738,13.577-11.7,12.831-13.66-11.1-10.806-11.631,5.647-.42,5.566-1.9L558,172.148" transform="translate(-471.636 -145.588)" fill="#ffb9b0"></path><path d="M586.736,234.1s-20.95,2.378-25.773,2.478-4.584-2.42-4.584-2.42c-.245-5.309-1.145-17.818-2.143-22.057-.931-3.959-1.344-5.421-2.154-9.182-1.8-8.36-1.724-9.957-3.633-20.275l12.514-10.059s1.3,3.849,6.54,3.915c7.012.089,9.193-4.821,9.193-4.821l17.068,11.332,1.6,27.565-2.042,22.7" transform="translate(-475.742 -140.358)" fill="#fca70c"></path><path d="M572.41,174.882a36.432,36.432,0,0,1-1.477,4.816c-1.107,2.877-2.737,3.909-5.78,3.981l-6.416.152c-1.641.039-3.685.1-5.01-1.057s-1.344-3.064-1.635-4.646q-.558-3.034-.91-6.1a89.749,89.749,0,0,1-.565-12.069,8.592,8.592,0,0,1,.143-1.651,1.193,1.193,0,0,1,.274-.606,1.346,1.346,0,0,1,.771-.3,65.846,65.846,0,0,1,12.127-.777c2.864.081,5.9.415,8.164,2.168,2.282,1.763,3.365,4.63,4.341,7.344.156.436.272,1.018-.106,1.284" transform="translate(-473.425 -156.597)" fill="#ffb9b0"></path><g transform="translate(32.017 91.853)"><g transform="translate(9.305 73.703)"><path d="M538.476,239.224a45.685,45.685,0,0,0,1.25,5.591c.555,1.423,5.228.11,5.537-.81s-1.47-7.7-1.47-7.7" transform="translate(-527.804 -236.308)" fill="#ed9c80"></path><path d="M552.424,241.445c.405,1.535.916,4.484.916,4.484l-4.673,2.033-.766-.719a8.642,8.642,0,0,1-2.592,2.067,19.415,19.415,0,0,1-4.521,1.255c-4.079.438-7.08-.328-7.323-.893-1.011-2.364,4.4-3,5.475-3.28a7.171,7.171,0,0,0,5.126-5.136c.239-1.238-.069-1.456.623-1.419a1.647,1.647,0,0,1,1.169.55,2.951,2.951,0,0,0,3.319.771,3.53,3.53,0,0,0,1.655-1.379A2.039,2.039,0,0,1,552.424,241.445Z" transform="translate(-533.338 -232.57)" fill="#38287c"></path></g><path d="M569.484,222.806a79.17,79.17,0,0,1-23.852.565c1.032,2.96,3.562,6.75,4.526,10.917,3.182,13.756,4.287,32.236,5.095,43.668,0,0-1.527,2.935-6.424.7-7.315-18.068-20.088-54.684-19.97-62.629.152-10.113,25.393-12.555,43.892-15.048" transform="translate(-528.858 -200.653)" fill="#453087"></path><path d="M600.291,202.727c5.818,4.247-32.245,20.248-32.245,20.248a63.387,63.387,0,0,1-12.474,1.19,9.094,9.094,0,0,1-.928-2.359c-.224-1.1-.1-2.256-.3-3.365a7.824,7.824,0,0,0-3.8-5.126,17.114,17.114,0,0,0-6.221-2.015c-5.147-.831-14.131-.249-14.131-.249,11.44-8.432,34.845-9.535,45.747-10.229C578.026,204.261,599.456,202.118,600.291,202.727Z" transform="translate(-527.421 -200.822)" fill="#38287c"></path><g transform="translate(19.152 84.285)"><path d="M544.286,243.351a45.749,45.749,0,0,0,.262,5.724c.3,1.5,5.13,1.016,5.593.162s-.114-7.834-.114-7.834" transform="translate(-531.396 -241.403)" fill="#ed9c80"></path><path d="M558.222,247.406c.133,1.585.125,4.576.125,4.576l-4.953,1.194-.631-.843a8.631,8.631,0,0,1-2.91,1.587,19.418,19.418,0,0,1-4.673.451c-4.092-.274-6.914-1.549-7.056-2.148-.588-2.5,4.852-2.189,5.959-2.281a7.173,7.173,0,0,0,5.938-4.171c.451-1.178.187-1.446.862-1.288a1.647,1.647,0,0,1,1.055.744,2.948,2.948,0,0,0,3.136,1.333,3.529,3.529,0,0,0,1.869-1.07A2.037,2.037,0,0,1,558.222,247.406Z" transform="translate(-538.079 -238.13)" fill="#38287c"></path></g><path d="M599.942,201.334a235.74,235.74,0,0,1-25.785.822c-3.294,0-28.2,4.673-30.585,8.894-3.919,6.943,2.557,47.521,1.957,76.571,0,0,2.987,2.492,8.268.15,1.313-14.271,9.745-47.936,3.928-63.653,13.733,1.821,24.811,3.633,37.294-.5,2.922-.968,5.107-3.032,6.422-6.808C602.756,213.013,602.069,204.724,599.942,201.334Z" transform="translate(-514.377 -200.271)" fill="#453087"></path></g><g transform="translate(16.021 32.224)"><path d="M590.356,172.112s-2.993.164-3.576.212a27.5,27.5,0,0,0-7.4,1.4c-3.394,1.257-5.788,4.414-8.551,6.883-2.661,2.376-16.447,15.513-19.019,16s-25.146-14.985-25.146-14.985l-5.51,5.512s24.493,22.633,31.8,22.672c3.545.019,23.1-10.275,29.356-14.275Z" transform="translate(-521.156 -172.112)" fill="#fca70c"></path><path d="M553.01,198.223c-5.035.285-28.109-17.338-30.785-19.395l-1.07,1.07s24.493,22.633,31.8,22.672c2.955.015,17.018-7.128,25.245-11.826l2.131-1.236-1.277-7.61S558.358,197.921,553.01,198.223Z" transform="translate(-521.156 -164.879)" fill="#ce4a30" opacity="0.25" style="mix-blend-mode:multiply;isolation:isolate"></path></g><g transform="translate(12.821 61.625)"><path d="M530.364,222.087h56.069l-10.055-32.774a4.308,4.308,0,0,0-4.119-3.045h-49.1a2.793,2.793,0,0,0-2.671,3.614Z" transform="translate(-518.812 -186.268)" fill="#a4a4f7"></path><path d="M530.463,222.087h55.224l-10.053-32.774a4.309,4.309,0,0,0-4.12-3.045h-49.1a2.8,2.8,0,0,0-2.673,3.614l9.631,31.4A1.141,1.141,0,0,0,530.463,222.087Z" transform="translate(-519.615 -186.268)" fill="#7a74d1"></path></g><path d="M584.927,188.379c-2.79,12.618-3.284,22.491-4.073,31.514-9.8,3.8-13.787,9.465-23.374,13.731,0,0-7.57-1.257-8.364,1.6-.459,1.647,8.862,2.958,8.862,2.958,8.885.042,32.317-6.451,33.9-6.887s6.2-30.222,6.389-46.387c.025-2.3-.056-4.787-1.491-6.578a8.618,8.618,0,0,0-2.891-2.139c-6.252-3.2-10.883-4.069-17.891-4.513" transform="translate(-475.041 -140.358)" fill="#ce4a30" opacity="0.25" style="mix-blend-mode:multiply;isolation:isolate"></path><path d="M561.912,203.211c-1.053-1.325-2.972-1.518-4.665-1.477a34.232,34.232,0,0,0-3.747.3c-.565.077-1.217.21-1.275.822s2.746,0,4.216.424a74.1,74.1,0,0,1-8.669.237,2.486,2.486,0,0,0-1,.1.83.83,0,0,0-.561.76,1.037,1.037,0,0,0,.4.66,5.885,5.885,0,0,0,2.983,1.2,22.969,22.969,0,0,0,13.178-1.163" transform="translate(-478.151 -107.991)" fill="#ffb9b0"></path><path d="M579.972,188.142c-.231,13.488-1.188,19.661-.926,33.148-6.771,1.448-16.144,9.114-25.731,13.382a5.063,5.063,0,0,0,.318,3.508c.731.268,32.338-7.427,34.851-9.743,2.262-2.085,5.255-27.366,5.44-43.531.025-2.3-.056-4.787-1.491-6.578a8.618,8.618,0,0,0-2.891-2.139c-6.252-3.2-10.883-4.069-17.891-4.513" transform="translate(-470.696 -140.358)" fill="#fca70c"></path><g transform="translate(36.261 74.895)"><path d="M546.811,197.862c.2,2.875-3.2,5.2-7.587,5.2s-8.113-2.328-8.314-5.2,3.2-5.2,7.587-5.2S546.609,194.987,546.811,197.862Z" transform="translate(-530.901 -192.657)" fill="none" stroke="#a4a4f7" stroke-miterlimit="10" stroke-width="1" opacity="0.45"></path><ellipse cx="2.892" cy="5.056" rx="2.892" ry="5.056" transform="matrix(0.039, -0.999, 0.999, 0.039, 2.794, 7.897)" fill="#a4a4f7"></ellipse></g></g><path d="M564.022,161.519c-.106-.5-1.225-.6-2.351-.463s-4.123.519-4.738,1-.582.825-.91.862-.345-.3-1.061-.615a9.525,9.525,0,0,0-3.572.048c-1.124.141-2.193.39-2.17.906a2.882,2.882,0,0,0,.451,1.554c.228.143.228.118,1.113,2.152a2.147,2.147,0,0,0,2.708,1.47c1.851-.4,1.967-2.511,2.11-3.392s.276-1.011.557-1.047.474.054.831.872.615,2.7,2.511,2.81c2.482.139,3.558-.71,3.9-2.3.465-2.158.359-2.166.546-2.362a11.758,11.758,0,0,1,1.855.158l-.041-.644A14.032,14.032,0,0,1,564.022,161.519Zm-9.014,4.343a2.161,2.161,0,0,1-1.83,2.264c-1.138.143-1.659-.461-2.276-1.919a3.771,3.771,0,0,1-.368-2.629c.193-.349.808-.336,2.22-.426s1.886-.12,2.114.5A7.667,7.667,0,0,1,555.008,165.862Zm8.092-1.19c-.235,1.564-.808,2.316-2.368,2.5-2.21.266-2.636-.606-2.962-1.659a7.67,7.67,0,0,1-.413-2.175c.068-.658.532-.748,1.923-1.009s3.25-.588,3.525-.3A3.76,3.76,0,0,1,563.1,164.672Z" transform="translate(-474.913 -146.222)" fill="#483a99"></path><path d="M579.81,165.736a23.92,23.92,0,0,0-.617-3.325,10.6,10.6,0,0,0-5.18-6.79,16.564,16.564,0,0,0-11.72-1.167c-2.145.6-2.941,1.73-4.046,1.7a12.149,12.149,0,0,1-3-.989c-8.385-3.014-6.979,5.194-6.086,7.448.4,1,2.3,1.724,2.551,2.137a25.578,25.578,0,0,1,.386,3.34,1.771,1.771,0,0,0,1.045,1.234s.046-2.642.087-3a3.327,3.327,0,0,1,1.24-2.476,7.694,7.694,0,0,1,3.016-.847,22.969,22.969,0,0,1,6.171,1.022c1.566,1.344,1.969,4.409,2.409,6.212.2.841.418,1.406.76,1.394.26-2.482,1.122-2.544,2.607-1.7.791.453,1.236,2.025,1.263,3.356a3.542,3.542,0,0,1-2.5,3.664c-.592.127,1.194,3.512,2.021,4.357a4.519,4.519,0,0,0,.874.768,4.013,4.013,0,0,0,1.009.374l1.2.326a3.136,3.136,0,0,0,1.647.141c.885-.249,1.352-1.188,1.751-2.017.654-1.358,1.408-2.675,1.944-4.087A24.275,24.275,0,0,0,579.81,165.736Z" transform="translate(-475.713 -153.884)" fill="#483a99"></path></g><g transform="translate(877.318 251.703)"><path d="M691.336,251.693H585.208l12.709-9.4v-45.9a6.935,6.935,0,0,1,6.935-6.935h86.484a6.935,6.935,0,0,1,6.935,6.935v48.37A6.935,6.935,0,0,1,691.336,251.693Z" transform="translate(-585.208 -189.453)" fill="#d5d2ff"></path><g transform="translate(21.064 8.953)"><rect width="48.502" height="4.641" transform="translate(34.277)" fill="#fff" opacity="0.45"></rect><rect width="48.502" height="4.641" transform="translate(34.277 6.933)" fill="#fff" opacity="0.45"></rect><rect width="48.502" height="4.641" transform="translate(34.277 13.866)" fill="#fff" opacity="0.45"></rect><rect width="48.502" height="4.641" transform="translate(34.277 20.621)" fill="#fff" opacity="0.45"></rect><rect width="33.824" height="4.641" transform="translate(34.277 28.703)" fill="#fff" opacity="0.45"></rect><rect width="30.467" height="35.624" rx="3.385" fill="#a9adff"></rect><rect width="30.467" height="3.824" transform="translate(0 40.06)" fill="#fff" opacity="0.45"></rect><g transform="translate(3.676 7.977)"><path d="M611.682,210.4H600.626a1.379,1.379,0,0,1-1.331-1.018l-2.127-7.855a1.379,1.379,0,0,1,1.331-1.738h15.309a1.377,1.377,0,0,1,1.331,1.738l-2.127,7.855A1.378,1.378,0,0,1,611.682,210.4Z" transform="translate(-597.12 -195.255)" fill="#fff"></path><g transform="translate(2.921)"><path d="M612.115,214.513H598.8a.275.275,0,0,1,0-.55h13.108l4.634-16.159a.273.273,0,0,1,.264-.2h2.9a.275.275,0,0,1,0,.55h-2.69l-4.634,16.159A.274.274,0,0,1,612.115,214.513Z" transform="translate(-598.526 -197.604)" fill="#fff"></path></g><g transform="translate(2.013 17.463)"><path d="M601.31,207.622a1.611,1.611,0,1,1-1.612-1.61A1.612,1.612,0,0,1,601.31,207.622Z" transform="translate(-598.089 -206.012)" fill="#fff"></path><circle cx="1.61" cy="1.61" r="1.61" transform="translate(11.708)" fill="#fff"></circle></g></g></g></g><g transform="translate(580.355 155.045)"><path d="M451.063,237.707H586.28l-16.194-11.98V151.748a8.833,8.833,0,0,0-8.835-8.833H451.063a8.833,8.833,0,0,0-8.835,8.833v77.124A8.835,8.835,0,0,0,451.063,237.707Z" transform="translate(-442.228 -142.915)" fill="#d5d2ff"></path><g transform="translate(11.748 13.717)"><g transform="translate(0 0)" opacity="0.45"><rect width="61.794" height="5.913" transform="translate(61.795 5.913) rotate(180)" fill="#fff"></rect><rect width="61.794" height="5.913" transform="translate(61.795 14.746) rotate(180)" fill="#fff"></rect><rect width="61.794" height="5.913" transform="translate(61.795 23.579) rotate(180)" fill="#fff"></rect><rect width="61.794" height="5.913" transform="translate(61.795 32.186) rotate(180)" fill="#fff"></rect><rect width="61.794" height="5.913" transform="translate(61.795 40.792) rotate(180)" fill="#fff"></rect><rect width="61.794" height="5.913" transform="translate(61.795 56.432) rotate(180)" fill="#fff"></rect><rect width="105.465" height="5.913" transform="translate(105.465 65.745) rotate(180)" fill="#fff"></rect></g><g transform="translate(66.649 0)"><rect width="38.817" height="45.388" rx="4.313" transform="translate(38.817 45.388) rotate(180)" fill="#c4c4f7"></rect><rect width="38.817" height="4.873" transform="translate(38.817 55.912) rotate(180)" fill="#fff" opacity="0.45"></rect><g transform="translate(3.081 10.164)"><path d="M489.792,170.71h14.086a1.758,1.758,0,0,0,1.7-1.3l2.708-10a1.756,1.756,0,0,0-1.695-2.216H487.081a1.756,1.756,0,0,0-1.695,2.216l2.708,10A1.758,1.758,0,0,0,489.792,170.71Z" transform="translate(-477.292 -151.421)" fill="#fff"></path><path d="M491.474,175.953h16.965a.35.35,0,1,0,0-.7h-16.7l-5.9-20.587a.349.349,0,0,0-.336-.253h-3.691a.35.35,0,1,0,0,.7h3.427l5.9,20.587A.349.349,0,0,0,491.474,175.953Z" transform="translate(-481.457 -154.413)" fill="#fff"></path><g transform="translate(9.469 22.248)"><path d="M493.2,167.177a2.051,2.051,0,1,0,2.05-2.052A2.05,2.05,0,0,0,493.2,167.177Z" transform="translate(-478.281 -165.125)" fill="#fff"></path><path d="M486.016,167.177a2.051,2.051,0,1,0,2.05-2.052A2.05,2.05,0,0,0,486.016,167.177Z" transform="translate(-486.016 -165.125)" fill="#fff"></path></g></g></g></g></g><g transform="translate(824.532 338.865)"><ellipse cx="59.588" cy="6.282" rx="59.588" ry="6.282" transform="translate(17.804 287.823)" fill="#eae6ff"></ellipse><path d="M588.821,369.619c-.5.974-2.9,3.225-6.218,4.708s-10.354,2.179-6.445,3.485,8.464.515,10.773.145a46.533,46.533,0,0,1,7.267-.44c3.591-.023,3.62-.245,3.136-4.293C596.667,367.652,590.437,366.47,588.821,369.619Z" transform="translate(-543.408 -84.43)" fill="#9aa3f4"></path><path d="M617.091,369.178c-.2,1.124,1.4,4.53-1.46,7.03s-9.336,5.132-5.039,5.23a25.019,25.019,0,0,0,10.607-1.975c2.183-1.08.44-2.779,3.151-3.633,3.57-1.128,2.833-3.753.978-5.377C622.951,365.1,617.735,365.541,617.091,369.178Z" transform="translate(-506.624 -86.009)" fill="#9aa3f4"></path><path d="M633.479,336.938s8.557-25.158-15.72-45.882c0,0-13.01,5.18-23.428,5.805a57.831,57.831,0,0,1-12.37-.264s-.692,22.35-.721,34.4Z" transform="translate(-536.696 -167.192)" fill="#4a41a3"></path><path d="M580.3,337.443c-.469-11.249,11.727-9.774,16.225-1.371,9.3,17.376-3.431,57.395-5.113,76.357-1.749.677-4.68,1.2-6.439.4a4.5,4.5,0,0,1-1.871-2.069C583.371,387.5,580.8,349.47,580.3,337.443Z" transform="translate(-537.723 -125.911)" fill="#0a0a0a"></path><path d="M596.085,370.726c-1.4,4.594-16.973,9.425-15.71-7.294.559-7.415,2.05-48.36,2.337-52.306s.949-9.716,2.856-10.437c9.54-3.6,26.413,8.873,23.9,23.694C607.795,334.29,598.993,361.2,596.085,370.726Z" transform="translate(-537.706 -157.491)" fill="#0a0a0a"></path><path d="M600.062,342.211c-3.763-10.609,8.466-12.487,15.4-5.95,16.242,15.307,16.871,51.376,20.853,69.993a14.244,14.244,0,0,1-7.1,2.033,2.538,2.538,0,0,1-1.936-.991C620.68,384.99,604.089,353.555,600.062,342.211Z" transform="translate(-517.183 -122.591)" fill="#0a0a0a"></path><path d="M623.807,371.672c.426,4.783-12.553,14.669-17.661-1.3-2.266-7.082-11.965-48.933-13.18-52.7s-.883-11.542.615-12.925c7.49-6.92,24.394-.835,27.634,13.843C623.383,328.4,622.926,361.753,623.807,371.672Z" transform="translate(-524.865 -155.515)" fill="#0a0a0a"></path><path d="M575.25,258.309c.442-.467.885-.935,1.279-1.441,3.076-3.934,3.525-7.421,6.374-11.986a35.62,35.62,0,0,1,2.071-3.963,16.575,16.575,0,0,1,4.625-3.79c1.331-.7.187,2.237.187,2.237s1.13-1.639,2.222-1.522c.426.046.5,2.548.507,2.976a21.016,21.016,0,0,1-2.334,9.936,5.118,5.118,0,0,0-.8,2.258,5.046,5.046,0,0,0,2.683-1.321,3.241,3.241,0,0,1,2.808-.818,7.684,7.684,0,0,1-.54,1.173c-1.215,2.28-2.58,4.708-4.914,5.818-1.4.66-3.009.779-4.372,1.5-2.461,1.309-3.657,4.337-6.156,5.573" transform="translate(-543.146 -225.387)" fill="#f2a181"></path><rect width="10.632" height="19.574" rx="0.646" transform="matrix(0.923, 0.386, -0.386, 0.923, 45.697, 12.161)" fill="#5e5dbb"></rect><rect width="8.913" height="17.473" transform="translate(46.35 13.573) rotate(22.698)" fill="#b4b4db"></rect><path d="M614.365,263.966a58.118,58.118,0,0,0-11.88,2.006c-8.453,2.538-11.361,6.453-14.281,8.071,5.672-7.207,12-22.491,12-22.491s-7.627-6.264-8.5-4.781-32.884,38.937-31.881,45c.413,2.5,4.119,4.972,7.394,4.86,9.076-.312,19.615-3.614,30.664-7.23,4.858-1.589,6.356,1.836,6.356,1.836" transform="translate(-559.793 -215.13)" fill="#7a74d1"></path><path d="M576.3,261.8s-4.031,8.125-5.242,8.655,2.939-1.693,5.209-4.038,5.377-8.5,5.377-8.5A46.662,46.662,0,0,0,576.3,261.8Z" transform="translate(-547.892 -202.884)" fill="#6960c4"></path><path d="M582.181,240.829a1.838,1.838,0,0,1,.571,1.279,10.091,10.091,0,0,1-.156,5.388,7.768,7.768,0,0,1-2.168,2.758,16.965,16.965,0,0,1-3.3,2.256" transform="translate(-541.124 -221.285)" fill="#f2a181"></path><path d="M589.145,234.32c-2.139.617-3.269,3.377-4,5.267a29.3,29.3,0,0,0-1.6,7.105,9.753,9.753,0,0,0,.347,5,10.5,10.5,0,0,0,1.4,2.175,4.6,4.6,0,0,0,1.005,1.059,1.551,1.551,0,0,0,1.392.237c.667-.255.935-1.038,1.124-1.726,1.232-4.488,2.58-9.029,5.113-12.933" transform="translate(-534.375 -228.295)" fill="#170d54"></path><path d="M587.24,242.009c-.044-1.429-1.547-2.361-2.85-.881-1.08,1.223-1.367,3.549-1.427,5.267-.075,2.058,1.52,2.461,2.833,2.75" transform="translate(-534.842 -221.771)" fill="#f2a181"></path><path d="M578.637,262.465c2.64-3.026,11.014-8.017,22.209-7.662,7.712.243,28.716,1.516,31.063,6.675,1.2,2.638,2.488,29.646.731,38.958-1.321,7-4.7,24.35-4.7,28.537s2.249,5.982,1.2,7.2c-2.351,2.723-18.422,3.865-25.968,3.865-6.715,0-18.146-1.79-18.726-3.942-.86-3.192,1.311-3.074,1.605-6.422s1.14-25.079-.091-28.635c-2.224-6.422-3.3-16.894-5.07-21.644C579.549,275.789,576,265.491,578.637,262.465Z" transform="translate(-540.522 -206.255)" fill="#7a74d1"></path><path d="M615.986,269.092c.8,1.666,6.235,10.406,6.235,10.406l.22,1.047a43.26,43.26,0,0,1-.552,4.669c-1.321,7-4.7,24.35-4.7,28.537s2.154,5.9,1.2,7.2c-1.853,2.511-32.158,8.158-30.666,1.146.135-.633,25.434-19.937,25.569-20.585,1.165-5.539,2.183-9.531,2.694-13.571C617.216,278.216,615.186,267.426,615.986,269.092Z" transform="translate(-529.771 -191.031)" fill="#6960c4"></path><path d="M587.2,253.008s-.071,8.786-.424,9.141a13.84,13.84,0,0,1-2.091,1.176s1.238,7.635,3.151,7.068,14.549-6.947,14.549-6.947-1.793-.729-1.793-1.437,1.7-14.526,1.7-14.526" transform="translate(-532.981 -214.121)" fill="#ffbe9d"></path><path d="M597.7,234.777c-1.842.5-6.694-.5-8.034,1.506s-2.511,6.862-3.014,8.2c-1,2.665-1.651,5.514-2.376,8.262-.947,3.581-2.507,10.14,1,13.135a4.663,4.663,0,0,0,2.7,1.373c1.659.3,3.309.64,4.968.937,2.571.461,5.417,1,7.971.17,3.411-1.107,5.28-5.8,6.158-8.981l5.02-18.244Z" transform="translate(-534.697 -227.803)" fill="#ffbe9d"></path><path d="M586.857,260.162s-.739,34.282-2.135,55.137l5.043,6.952,3.464-8.707a265.1,265.1,0,0,0-3.277-53.143Z" transform="translate(-532.945 -200.464)" fill="#3b2e7a"></path><path d="M585.191,259.832l.118.471a9.588,9.588,0,0,0,1.043,2.54h0l3.095.239s2.1-1.1,2.38-2.287-3.452-3.124-3.452-3.124l-.453.176a6.752,6.752,0,0,0-2.694,1.938Z" transform="translate(-532.44 -203.146)" fill="#3b2e7a"></path><path d="M598.621,253.446a12.917,12.917,0,0,1,3.529,3.576c-1.591,3.639-5.186,10.1-9.147,13.049a17.882,17.882,0,0,0-6.279-7.849S597.514,260.3,598.621,253.446Z" transform="translate(-530.789 -207.697)" fill="#fff"></path><path d="M590,261.983a13.281,13.281,0,0,0-6.152,5.847,29.41,29.41,0,0,1,.835-10.852s2.534-3.242,3.41-3.309A17.037,17.037,0,0,0,590,261.983Z" transform="translate(-534.069 -207.457)" fill="#fff"></path><g transform="translate(10.191 52.034)"><path d="M590.969,294.522c-3.832.577-5.248,2-7.409,4.135a.8.8,0,0,0-.322.638c.05.305.409.44.715.49,1.78.287,2.069-.851,3.732-1.545,1.124-.469,2.239-.956,3.356-1.441" transform="translate(-544.739 -215.494)" fill="#f2a181"></path><g transform="translate(0 43.738)"><g transform="translate(0 5.538)"><path d="M597.919,282.027,611.5,325.547a1.558,1.558,0,0,1-1.439,2.183l-28.334,2.486a2.626,2.626,0,0,1-2.374-1.83l-14.6-42.858c-.366-1.167,1.321-2.837,2.459-2.845l28.334-2.486A2.626,2.626,0,0,1,597.919,282.027Z" transform="translate(-564.699 -280.197)" fill="#e9e6ff"></path></g><g transform="translate(0.042 6.674)"><path d="M596.967,282.574l13.39,42.85a1.559,1.559,0,0,1-1.439,2.185l-28.334,2.486a2.628,2.628,0,0,1-2.374-1.832l-13.39-42.848a1.558,1.558,0,0,1,1.439-2.185l28.332-2.486A2.629,2.629,0,0,1,596.967,282.574Z" transform="translate(-564.72 -280.744)" fill="#e0d9ff"></path></g><g transform="translate(9.655)"><path d="M569.348,281.555l1.005,3.757,13.252-1.171-1.09-3.741Z" transform="translate(-569.348 -274.441)" fill="#fff"></path><path d="M570.642,281.154c.274.874,1.327,4.25,1.327,4.25l6.327-.586-1.327-4.249a4.3,4.3,0,0,0-4.2-3.024A2.589,2.589,0,0,0,570.642,281.154Zm1.4-.087a1.453,1.453,0,0,1,1.194-2.025,2.418,2.418,0,0,1,2.355,1.7,1.452,1.452,0,0,1-1.194,2.025A2.413,2.413,0,0,1,572.044,281.066Z" transform="translate(-568.133 -277.531)" fill="#fff"></path></g></g><path d="M602.258,293.059c-2.972.619-10.894,2.983-11.727,3.375a35.092,35.092,0,0,0-5.051,3.734c-2.98,2.991-1.456,4.384-2.632,8.441a2.367,2.367,0,0,0-.073.642c0,.422.571.787,1.146.393.312.523,1.232.2,1.678-.37-.008.405.559.66,1.47.156.492-.272.4-.247,1.543-1.263a11.972,11.972,0,0,1,3.223-1.963,23.417,23.417,0,0,0,3.147-1.437c1.2-.791,3.348-.98,4.407-4.416a3.423,3.423,0,0,1,1.653-1.651l4.843-3.037" transform="translate(-545.232 -217.069)" fill="#ffbe9d"></path><path d="M612.891,276.712c1.261,4.495,6.5,35.639,6.5,35.639l-29.532,21.388,2.457,6.459s35.335-11.864,38.119-19.974,2.654-44.744-7.159-57.6c-3.124-4.092-9.384-6.156-9.384-6.156" transform="translate(-537.6 -256.472)" fill="#7a74d1"></path><path d="M588.67,298.458a18.969,18.969,0,0,0-2.062,1.587c-.843.889-1.477,1.873-2.38,2.937" transform="translate(-543.669 -211.255)" fill="none" stroke="#f2a181" stroke-miterlimit="10" stroke-width="0.25"></path><path d="M587.85,297.516a10.673,10.673,0,0,0-2.434,2.951,39.863,39.863,0,0,1-1.938,3.741" transform="translate(-544.476 -212.269)" fill="none" stroke="#f2a181" stroke-miterlimit="10" stroke-width="0.25"></path><path d="M586.462,296.754c-.287.459-1.5,1.6-1.747,2.081a18.822,18.822,0,0,0-1.682,4.808" transform="translate(-544.955 -213.09)" fill="none" stroke="#f2a181" stroke-miterlimit="10" stroke-width="0.25"></path></g><path d="M608.117,259.834c-1.157-.677-2.044-1.392-2.8-.282-.4.588-.642,1.4-1.323,1.6a1.367,1.367,0,0,1-1.549-1.1,3.969,3.969,0,0,1,.255-2.083q.7-2.243,1.393-4.488c.455-1.464.908-3.074.326-4.495a4.944,4.944,0,0,0-1.417-1.815,15,15,0,0,0-6.891-2.947A73.241,73.241,0,0,1,588.7,242.7a8.033,8.033,0,0,1-2.825-1.421,6.1,6.1,0,0,1-2-4.567,9.424,9.424,0,0,1,1.45-4.866,8.1,8.1,0,0,0,.74,1.689,6.274,6.274,0,0,1,1.352-2.118c.721,4.019,17.642,2.675,21.594,4.449,2.742,1.227,5.008,2.031,4.925,6.472a1.627,1.627,0,0,0,.536.706c2.428,2.231,3.481,4.945,3.784,8.972.374,4.931-2.5,10.266-5.311,14.331a9.142,9.142,0,0,1-2.09,2.5,5.544,5.544,0,0,1-3.932.889c-1.219-.233-3.624-.129-3.647-1.371-.017-.889,1.884-2.474,2.409-3.19" transform="translate(-533.863 -231.419)" fill="#3b2e7a"></path><path d="M593.43,250.547a1.551,1.551,0,0,0,2.32,1.759,5.348,5.348,0,0,0,3.377-4.141c.4-2.133-.748-4.264-2.7-3.709a2.878,2.878,0,0,0-1.842,2.806" transform="translate(-523.607 -217.475)" fill="#ffbe9d"></path><path d="M585.941,250.5l5.429,1a7.57,7.57,0,0,1-5.5,2.029" transform="translate(-531.709 -210.865)" fill="#f2a181"></path></g><g transform="translate(430.047 259.527)" opacity="0.3"><g transform="translate(22.562 20.651)"><path d="M380.722,208.424l7.272,3.66-3.636-8.922" transform="translate(-380.722 -203.163)" fill="#3939d3"></path></g><path d="M369.859,207.725c0,8.011,6.881,14.506,15.369,14.506s15.37-6.495,15.37-14.506-6.883-14.505-15.37-14.505S369.859,199.715,369.859,207.725Z" transform="translate(-369.859 -193.22)" fill="#3939d3"></path><path d="M375.447,198.474v10.368a1.086,1.086,0,0,0,1.63.941l8.979-5.184a1.086,1.086,0,0,0,0-1.882l-8.979-5.184A1.087,1.087,0,0,0,375.447,198.474Z" transform="translate(-363.841 -188.733)" fill="#fefefe"></path></g><g transform="translate(947.467 369.82)" opacity="0.3"><g transform="translate(0.904 20.649)"><path d="M626.69,261.526l-7.272,3.66,3.636-8.922" transform="translate(-619.419 -256.265)" fill="#3939d3"></path></g><path d="M649.722,260.826c0,8.011-6.881,14.505-15.37,14.505s-15.37-6.495-15.37-14.505,6.881-14.5,15.37-14.5S649.722,252.816,649.722,260.826Z" transform="translate(-618.983 -246.323)" fill="#3939d3"></path><g transform="translate(6.345 4.764)"><g transform="translate(6.154)"><path d="M625.123,265.3c3.35.054,6.742.1,9.822-.1.974-.064,1.817-1.527.633-1.988a2.154,2.154,0,0,0,1.221-1,.972.972,0,0,0-.594-1.306c1.163.272,1.62-1.468.714-2.029a2.549,2.549,0,0,0,.98-1.483,1.454,1.454,0,0,0-.708-1.533,2.674,2.674,0,0,0-1.207-.2q-2.09-.012-4.179-.029c.378-2.056.49-4.3-.617-6.106-.335-.544-1.23-1.2-1.942-.777-.667.393-.482,1.369-.449,1.983a6.883,6.883,0,0,1-3.8,6.339S625.159,262.523,625.123,265.3Z" transform="translate(-625.001 -248.617)" fill="#fefefe"></path></g><rect width="5.063" height="8.224" transform="translate(0 8.456)" fill="#fefefe"></rect></g></g><g transform="translate(703.373 260.665)" opacity="0.3"><g transform="translate(17.69 3.455)"><path d="M511.94,201.163l5.305-5.732-7.27,1.424" transform="translate(-509.975 -195.431)" fill="#3939d3"></path></g><path d="M501.458,204.286c0,5.809,4.991,10.518,11.147,10.518s11.145-4.708,11.145-10.518-4.991-10.518-11.145-10.518S501.458,198.476,501.458,204.286Z" transform="translate(-501.458 -193.768)" fill="#3939d3"></path><g transform="translate(4.898 3.455)"><g transform="translate(4.031)"><path d="M505.838,207.533c2.2.037,4.416.071,6.435-.077.64-.046,1.19-1.1.415-1.441a1.455,1.455,0,0,0,.8-.725.726.726,0,0,0-.388-.947c.762.2,1.061-1.065.467-1.473a1.866,1.866,0,0,0,.642-1.074,1.1,1.1,0,0,0-.463-1.113,1.6,1.6,0,0,0-.791-.141l-2.737-.023a6.878,6.878,0,0,0-.4-4.428c-.22-.395-.806-.866-1.273-.563-.436.285-.316.993-.293,1.439a5.086,5.086,0,0,1-2.49,4.6S505.861,205.516,505.838,207.533Z" transform="translate(-505.757 -195.431)" fill="#fefefe"></path></g><rect width="3.317" height="5.964" transform="translate(0 6.132)" fill="#fefefe"></rect></g></g><g transform="translate(745.627 166.273)" opacity="0.3"><path d="M551.1,175.016a16.406,16.406,0,1,0-3.739,3.439l6.368,3.4Z" transform="translate(-521.802 -148.321)" fill="#3939d3"></path><path d="M527.007,154.672a4.013,4.013,0,0,1,5.678.058l1.024,1.045,1.053-1.036a4.015,4.015,0,1,1,5.633,5.722l-3.9,3.847-.023.027a4.016,4.016,0,0,1-5.678-.06l-3.843-3.923A4.015,4.015,0,0,1,527.007,154.672Z" transform="translate(-517.496 -142.717)" fill="#fff"></path></g></g></svg> 