<svg width="712" height="550" viewBox="0 0 712 550" fill="none" xmlns="http://www.w3.org/2000/svg">
<g clip-path="url(#clip0)">
<path d="M705.963 328.587C693.649 294.253 674.256 283.806 655.811 261.782C633.284 234.882 618.089 215.333 623.938 180.739C633.496 124.208 637.588 -16.7797 487.928 1.64933C434.286 8.25633 391.898 49.3613 361.059 90.3933C334.821 125.309 287.62 128.393 249.626 136.528C202.946 146.528 155.394 161.638 112.206 183.773C23.2583 229.362 -3.30772 294.901 0.320281 378.756C1.41528 404.091 5.00129 443.995 47.7953 490.689C105.557 553.712 189.495 562.153 290.517 533.209C313.642 526.583 335.5 516.192 358.249 508.371C381.911 500.237 406.445 494.91 431.349 492.499C489.371 486.889 549.517 497.035 605.178 479.711C634.75 470.464 661.497 453.876 682.923 431.494C709.506 403.649 718.96 364.826 705.963 328.587Z" fill="#F1F8FE"/>
<path d="M47.7949 457.935C47.7949 466.216 152.885 472.935 282.533 472.935C412.162 472.935 517.252 466.216 517.252 457.935C517.252 449.654 412.162 442.935 282.533 442.935C152.885 442.931 47.7949 449.648 47.7949 457.935Z" fill="#CDCCFF"/>
<path d="M191.033 476.452C191.033 481.636 164.355 485.838 131.445 485.838C98.5354 485.838 71.8574 481.638 71.8574 476.452C71.8574 471.266 98.5364 467.066 131.445 467.066C164.354 467.066 191.033 471.268 191.033 476.452Z" fill="#CDCCFF"/>
<path d="M587.433 485.839C642.651 485.839 687.414 482.514 687.414 478.412C687.414 474.311 642.651 470.985 587.433 470.985C532.215 470.985 487.452 474.311 487.452 478.412C487.452 482.514 532.215 485.839 587.433 485.839Z" fill="#CDCCFF"/>
<path d="M71.2316 354.906L67.3926 408.675H118.684L115.15 354.805L71.2316 354.906Z" fill="#D7D7FF"/>
<path d="M81.4062 359.632C81.4455 359.203 81.6515 358.806 81.9801 358.527C82.3086 358.248 82.7335 358.11 83.1633 358.141V358.141C83.3795 358.104 83.6012 358.114 83.813 358.172C84.0247 358.23 84.2213 358.333 84.3891 358.474C84.5569 358.615 84.6919 358.791 84.7846 358.99C84.8774 359.189 84.9257 359.406 84.9261 359.625C84.9266 359.844 84.8791 360.061 84.7872 360.261C84.6953 360.46 84.561 360.636 84.3937 360.778C84.2265 360.92 84.0303 361.024 83.8188 361.083C83.6073 361.141 83.3857 361.153 83.1693 361.117V361.117C82.7395 361.149 82.3143 361.012 81.9847 360.734C81.6551 360.456 81.4474 360.061 81.4062 359.632ZM83.1653 358.706C83.0244 358.669 82.8771 358.665 82.7344 358.694C82.5918 358.723 82.4577 358.784 82.3425 358.873C82.2273 358.962 82.134 359.076 82.0699 359.207C82.0057 359.337 81.9723 359.481 81.9723 359.627C81.9723 359.772 82.0057 359.916 82.0699 360.046C82.134 360.177 82.2273 360.291 82.3425 360.38C82.4577 360.469 82.5918 360.531 82.7344 360.56C82.8771 360.589 83.0244 360.584 83.1653 360.548V360.548C83.3061 360.584 83.4534 360.589 83.5961 360.56C83.7387 360.531 83.8728 360.469 83.988 360.38C84.1032 360.291 84.1965 360.177 84.2607 360.046C84.3248 359.916 84.3582 359.772 84.3582 359.627C84.3582 359.481 84.3248 359.337 84.2607 359.207C84.1965 359.076 84.1032 358.962 83.988 358.873C83.8728 358.784 83.7387 358.723 83.5961 358.694C83.4534 358.665 83.3061 358.669 83.1653 358.706Z" fill="#EAE6FF"/>
<path d="M98.8926 359.59H99.1776H98.8926C98.8966 359.227 99.0444 358.881 99.3036 358.626C99.6646 358.28 100.148 358.091 100.648 358.098H100.654C101.082 358.066 101.507 358.203 101.835 358.481C102.164 358.758 102.371 359.153 102.411 359.581C102.409 359.789 102.36 359.993 102.268 360.179C102.176 360.364 102.043 360.527 101.879 360.653C101.532 360.93 101.1 361.079 100.656 361.073V361.073C100.226 361.106 99.8008 360.969 99.4711 360.692C99.1415 360.415 98.9337 360.019 98.8926 359.59V359.59ZM100.648 358.666C100.298 358.66 99.9604 358.791 99.7066 359.03C99.6305 359.103 99.5695 359.189 99.5271 359.285C99.4847 359.381 99.4617 359.485 99.4596 359.589V359.589C99.502 359.867 99.6498 360.117 99.8723 360.288C100.095 360.459 100.375 360.538 100.654 360.507V360.507C100.966 360.512 101.271 360.41 101.518 360.216C101.615 360.142 101.695 360.047 101.751 359.938C101.808 359.829 101.838 359.708 101.842 359.585C101.8 359.308 101.653 359.058 101.431 358.887C101.21 358.716 100.93 358.637 100.652 358.667L100.648 358.666Z" fill="#EAE6FF"/>
<path d="M91.3863 370.443C91.5503 370.443 91.7163 370.443 91.8863 370.435C95.0993 370.327 97.5503 369.293 99.1703 367.359C101.849 364.159 101.243 359.695 101.216 359.506C101.206 359.432 101.182 359.361 101.144 359.297C101.106 359.232 101.056 359.176 100.996 359.131C100.936 359.087 100.868 359.054 100.796 359.036C100.723 359.018 100.648 359.015 100.574 359.026C100.425 359.047 100.29 359.127 100.199 359.247C100.109 359.367 100.069 359.519 100.09 359.668C100.096 359.71 100.649 363.83 98.2902 366.636C96.8902 368.306 94.7182 369.203 91.8452 369.299C89.0639 369.382 86.9856 368.657 85.6103 367.122C83.1103 364.335 83.7222 359.753 83.7282 359.707C83.7454 359.56 83.7044 359.412 83.614 359.294C83.5236 359.177 83.3909 359.099 83.2441 359.078C83.0973 359.057 82.9481 359.094 82.8282 359.181C82.7084 359.268 82.6273 359.399 82.6022 359.545C82.5732 359.755 81.9022 364.688 84.7602 367.876C85.6125 368.759 86.6465 369.446 87.7907 369.889C88.9348 370.332 90.1617 370.521 91.3863 370.443V370.443Z" fill="#EAE6FF"/>
<path d="M95.3546 369.977L89.2246 409.954L144.912 409.823L139.273 369.874L95.3546 369.977Z" fill="#BDC6F9"/>
<path d="M74.7307 437.477C72.4965 437.476 70.3122 438.137 68.454 439.378C66.5959 440.618 65.1474 442.382 64.2918 444.446C63.4362 446.51 63.2118 448.781 63.6472 450.972C64.0825 453.164 65.1579 455.177 66.7375 456.757C68.317 458.337 70.3297 459.413 72.5209 459.849C74.7121 460.285 76.9835 460.062 79.0476 459.207C81.1118 458.352 82.876 456.904 84.1173 455.047C85.3585 453.189 86.0209 451.005 86.0207 448.771C86.0191 445.776 84.8292 442.905 82.7124 440.788C80.5956 438.67 77.7248 437.479 74.7307 437.477V437.477ZM74.7307 454.016C73.6947 454.011 72.6832 453.7 71.8239 453.121C70.9646 452.543 70.2961 451.722 69.9026 450.764C69.5091 449.806 69.4083 448.752 69.613 447.737C69.8177 446.721 70.3187 445.789 71.0527 445.058C71.7867 444.327 72.7209 443.83 73.7373 443.629C74.7536 443.428 75.8067 443.533 76.7634 443.931C77.7202 444.328 78.5378 445 79.1131 445.861C79.6883 446.723 79.9955 447.736 79.9957 448.772C79.9959 449.462 79.8598 450.146 79.595 450.784C79.3303 451.421 78.9421 452 78.4529 452.488C77.9637 452.975 77.383 453.361 76.7442 453.623C76.1054 453.885 75.4212 454.019 74.7307 454.016V454.016Z" fill="#8784EF"/>
<path d="M72.8751 437.477C70.6411 437.477 68.4573 438.139 66.5998 439.38C64.7423 440.621 63.2946 442.385 62.4398 444.449C61.5849 446.513 61.3613 448.784 61.7972 450.975C62.2331 453.167 63.3089 455.179 64.8886 456.759C66.4684 458.338 68.4811 459.414 70.6722 459.85C72.8632 460.285 75.1343 460.062 77.1982 459.207C79.2621 458.351 81.026 456.904 82.267 455.046C83.508 453.188 84.1703 451.005 84.1701 448.771C84.1685 445.776 82.9779 442.904 80.86 440.786C78.7421 438.668 75.8701 437.478 72.8751 437.477V437.477ZM72.8751 454.016C71.8391 454.011 70.8276 453.7 69.9683 453.121C69.109 452.543 68.4405 451.722 68.047 450.764C67.6535 449.806 67.5528 448.752 67.7575 447.737C67.9622 446.721 68.4631 445.789 69.1971 445.058C69.9311 444.327 70.8653 443.83 71.8817 443.629C72.898 443.428 73.9511 443.533 74.9078 443.931C75.8646 444.328 76.6822 445 77.2575 445.861C77.8327 446.723 78.1399 447.736 78.1401 448.772C78.1404 449.462 78.0042 450.146 77.7394 450.784C77.4747 451.421 77.0866 452 76.5973 452.488C76.1081 452.975 75.5274 453.361 74.8886 453.623C74.2498 453.885 73.5656 454.019 72.8751 454.016V454.016Z" fill="#9AA3F4"/>
<path d="M138.544 437.477C136.31 437.476 134.126 438.139 132.269 439.38C130.411 440.621 128.963 442.385 128.108 444.449C127.253 446.513 127.029 448.784 127.465 450.975C127.901 453.166 128.977 455.179 130.556 456.758C132.136 458.338 134.149 459.414 136.34 459.85C138.531 460.285 140.802 460.062 142.866 459.207C144.93 458.352 146.694 456.904 147.935 455.046C149.176 453.189 149.838 451.005 149.838 448.771C149.836 445.776 148.646 442.904 146.528 440.786C144.411 438.669 141.539 437.478 138.544 437.477ZM138.544 454.016C137.508 454.011 136.497 453.699 135.638 453.12C134.779 452.541 134.111 451.721 133.717 450.763C133.324 449.804 133.224 448.751 133.429 447.735C133.634 446.72 134.135 445.788 134.869 445.057C135.603 444.326 136.537 443.829 137.553 443.629C138.57 443.428 139.623 443.533 140.579 443.931C141.536 444.328 142.353 445 142.929 445.861C143.504 446.723 143.811 447.736 143.811 448.772C143.812 449.462 143.676 450.146 143.411 450.784C143.146 451.422 142.758 452.002 142.268 452.489C141.779 452.976 141.198 453.362 140.559 453.624C139.919 453.886 139.235 454.019 138.544 454.016Z" fill="#8784EF"/>
<path d="M136.686 437.477C134.452 437.477 132.268 438.139 130.41 439.38C128.553 440.621 127.105 442.385 126.25 444.449C125.395 446.513 125.172 448.784 125.608 450.975C126.044 453.167 127.119 455.179 128.699 456.759C130.279 458.338 132.292 459.414 134.483 459.85C136.674 460.285 138.945 460.062 141.009 459.207C143.073 458.351 144.837 456.904 146.078 455.046C147.319 453.188 147.981 451.005 147.981 448.771C147.979 445.776 146.789 442.904 144.671 440.786C142.553 438.668 139.681 437.478 136.686 437.477V437.477ZM136.686 454.016C135.65 454.011 134.638 453.699 133.779 453.12C132.92 452.541 132.252 451.721 131.859 450.763C131.466 449.804 131.365 448.751 131.57 447.735C131.775 446.72 132.276 445.788 133.01 445.057C133.745 444.326 134.679 443.829 135.695 443.629C136.711 443.428 137.764 443.533 138.721 443.931C139.678 444.328 140.495 445 141.07 445.861C141.645 446.723 141.952 447.736 141.953 448.772C141.953 449.462 141.817 450.146 141.552 450.784C141.288 451.422 140.899 452.002 140.41 452.489C139.92 452.976 139.339 453.362 138.7 453.624C138.061 453.886 137.376 454.019 136.686 454.016V454.016Z" fill="#9AA3F4"/>
<path d="M223.784 310.692H189.851C188.095 310.692 186.368 311.14 184.833 311.992C183.297 312.845 182.005 314.075 181.076 315.565L160.564 348.501" stroke="#9AA3F4" stroke-width="1.5" stroke-miterlimit="10"/>
<path d="M69.3829 409.036H145.221C147.176 409.036 149.067 408.339 150.555 407.071C152.043 405.803 153.03 404.046 153.34 402.116L161.187 353.164C161.376 351.989 161.308 350.787 160.987 349.641C160.666 348.495 160.1 347.433 159.329 346.527C158.557 345.621 157.598 344.893 156.518 344.394C155.438 343.895 154.262 343.636 153.072 343.636H61.5359C60.3461 343.636 59.1706 343.894 58.0903 344.393C57.0101 344.891 56.0509 345.618 55.279 346.524C54.5071 347.429 53.9409 348.491 53.6194 349.637C53.2979 350.782 53.2288 351.984 53.4169 353.159L61.2659 402.111C61.5738 404.042 62.5602 405.8 64.048 407.069C65.5357 408.339 67.4273 409.036 69.3829 409.036V409.036Z" stroke="#9AA3F4" stroke-width="1.5" stroke-miterlimit="10"/>
<path d="M107.302 343.64V409.035" stroke="#9AA3F4" stroke-width="1.5" stroke-miterlimit="10"/>
<path d="M157.471 376.337H57.1328" stroke="#9AA3F4" stroke-width="1.5" stroke-miterlimit="10"/>
<path d="M137.254 343.64L130.764 409.035" stroke="#9AA3F4" stroke-width="1.5" stroke-miterlimit="10"/>
<path d="M78.8477 343.64L84.8387 409.035" stroke="#9AA3F4" stroke-width="1.5" stroke-miterlimit="10"/>
<path d="M151.553 406.061L163.84 424.332C164.597 425.458 165.034 426.769 165.103 428.125C165.172 429.48 164.872 430.829 164.234 432.027C163.596 433.225 162.644 434.227 161.48 434.926C160.317 435.624 158.985 435.993 157.628 435.994H57.1328" stroke="#9AA3F4" stroke-width="1.5" stroke-miterlimit="10"/>
<path d="M415.639 414.737H311.608V442.722H415.639V414.737Z" fill="#4A41A3"/>
<path d="M535.101 164.421H193.242C188.058 164.421 183.855 168.624 183.855 173.808V414.486C183.855 419.67 188.058 423.873 193.242 423.873H535.101C540.286 423.873 544.488 419.67 544.488 414.486V173.808C544.488 168.624 540.286 164.421 535.101 164.421Z" fill="#5851BC"/>
<path d="M527.552 173.881H199.697C196.511 173.881 193.929 176.463 193.929 179.649V393.211C193.929 396.396 196.511 398.979 199.697 398.979H527.552C530.737 398.979 533.32 396.396 533.32 393.211V179.649C533.32 176.463 530.737 173.881 527.552 173.881Z" fill="#C4C3FC"/>
<path d="M274.216 440.289H453.033C454.974 440.289 456.837 441.06 458.21 442.434C459.583 443.807 460.355 445.669 460.355 447.611V457.931H266.894V447.611C266.894 445.669 267.665 443.807 269.038 442.434C270.411 441.06 272.274 440.289 274.216 440.289V440.289Z" fill="#5851BC"/>
<g opacity="0.35">
<path opacity="0.35" d="M507.442 189.428H279.989C277.222 189.428 274.979 191.671 274.979 194.438V344.041C274.979 346.808 277.222 349.051 279.989 349.051H507.442C510.208 349.051 512.452 346.808 512.452 344.041V194.438C512.452 191.671 510.208 189.428 507.442 189.428Z" fill="white"/>
</g>
<g style="mix-blend-mode:multiply" opacity="0.25">
<g style="mix-blend-mode:multiply" opacity="0.25">
<g style="mix-blend-mode:multiply" opacity="0.25">
<g style="mix-blend-mode:multiply" opacity="0.25">
<path d="M307.89 306.031H297.546V332H307.89V306.031Z" fill="#FCA70C"/>
</g>
</g>
<g style="mix-blend-mode:multiply" opacity="0.25">
<g style="mix-blend-mode:multiply" opacity="0.25">
<path d="M331.201 283.233H320.856V332H331.201V283.233Z" fill="#B1AFFD"/>
</g>
</g>
<g style="mix-blend-mode:multiply" opacity="0.25">
<g style="mix-blend-mode:multiply" opacity="0.25">
<path d="M354.511 288.276H344.167V332H354.511V288.276Z" fill="#FCA70C"/>
</g>
</g>
<g style="mix-blend-mode:multiply" opacity="0.25">
<g style="mix-blend-mode:multiply" opacity="0.25">
<path d="M377.821 263.59H367.477V332.001H377.821V263.59Z" fill="#B1AFFD"/>
</g>
</g>
<g style="mix-blend-mode:multiply" opacity="0.15">
<g style="mix-blend-mode:multiply" opacity="0.26">
<path d="M325.604 283.233H320.856V332H325.604V283.233Z" fill="black"/>
</g>
</g>
<g style="mix-blend-mode:multiply" opacity="0.15">
<g style="mix-blend-mode:multiply" opacity="0.26">
<path d="M302.294 306.031H297.546V332H302.294V306.031Z" fill="black"/>
</g>
</g>
<g style="mix-blend-mode:multiply" opacity="0.62">
<g style="mix-blend-mode:multiply" opacity="0.26">
<path d="M372.225 263.59H367.477V332.001H372.225V263.59Z" fill="black"/>
</g>
</g>
<g style="mix-blend-mode:multiply" opacity="0.15">
<g style="mix-blend-mode:multiply" opacity="0.26">
<path d="M348.915 288.276H344.167V332H348.915V288.276Z" fill="black"/>
</g>
</g>
<g style="mix-blend-mode:multiply" opacity="0.25">
<g style="mix-blend-mode:multiply" opacity="0.25">
<path d="M383.294 339.148H290.715V240.569H292.127V337.736H383.293L383.294 339.148Z" fill="#D5DBDA"/>
</g>
</g>
<g style="mix-blend-mode:multiply" opacity="0.25">
<g style="mix-blend-mode:multiply" opacity="0.25">
<path d="M300.224 293.87L299.281 292.819L323.499 271.073L345.931 275.946L370.221 248.905L371.272 249.849L346.433 277.501L323.905 272.607L300.224 293.87Z" fill="#D5DBDA"/>
</g>
</g>
<g style="mix-blend-mode:multiply" opacity="0.25">
<g style="mix-blend-mode:multiply" opacity="0.25">
<path d="M373.178 253.84L366.329 247.272L375.171 244.906L373.178 253.84Z" fill="#D5DBDA"/>
</g>
</g>
<g style="mix-blend-mode:multiply" opacity="0.25">
<g style="mix-blend-mode:multiply" opacity="0.25">
<path d="M399.165 304.189H392.061V311.293H399.165V304.189Z" fill="#B1AFFD"/>
</g>
<g style="mix-blend-mode:multiply" opacity="0.25">
<g style="mix-blend-mode:multiply" opacity="0.25">
<path d="M399.165 316.637H392.061V323.741H399.165V316.637Z" fill="#FCA70C"/>
</g>
</g>
<g style="mix-blend-mode:multiply" opacity="0.25">
<g style="mix-blend-mode:multiply" opacity="0.25">
<path d="M423.64 319.703H401.122V323.74H423.64V319.703Z" fill="#EFEFEF"/>
</g>
</g>
<g style="mix-blend-mode:multiply" opacity="0.25">
<g style="mix-blend-mode:multiply" opacity="0.25">
<path d="M423.64 307.257H401.122V311.294H423.64V307.257Z" fill="#EFEFEF"/>
</g>
</g>
</g>
<g style="mix-blend-mode:multiply" opacity="0.25">
<g style="mix-blend-mode:multiply" opacity="0.25">
<path d="M440.942 304.189H433.838V311.293H440.942V304.189Z" fill="#B1AFFD"/>
</g>
<g style="mix-blend-mode:multiply" opacity="0.25">
<g style="mix-blend-mode:multiply" opacity="0.25">
<path d="M440.942 316.637H433.838V323.741H440.942V316.637Z" fill="#FCA70C"/>
</g>
</g>
<g style="mix-blend-mode:multiply" opacity="0.25">
<g style="mix-blend-mode:multiply" opacity="0.25">
<path d="M465.417 319.703H442.899V323.74H465.417V319.703Z" fill="#EFEFEF"/>
</g>
</g>
<g style="mix-blend-mode:multiply" opacity="0.25">
<g style="mix-blend-mode:multiply" opacity="0.25">
<path d="M465.417 307.257H442.899V311.294H465.417V307.257Z" fill="#EFEFEF"/>
</g>
</g>
</g>
<g style="mix-blend-mode:multiply" opacity="0.25">
<g style="mix-blend-mode:multiply" opacity="0.25">
<path d="M478.562 304.189H471.458V311.293H478.562V304.189Z" fill="#B1AFFD"/>
</g>
<g style="mix-blend-mode:multiply" opacity="0.25">
<g style="mix-blend-mode:multiply" opacity="0.25">
<path d="M478.562 316.637H471.458V323.741H478.562V316.637Z" fill="#FCA70C"/>
</g>
</g>
<g style="mix-blend-mode:multiply" opacity="0.25">
<g style="mix-blend-mode:multiply" opacity="0.25">
<path d="M495.339 319.703H480.52V323.74H495.339V319.703Z" fill="#EFEFEF"/>
</g>
</g>
<g style="mix-blend-mode:multiply" opacity="0.25">
<g style="mix-blend-mode:multiply" opacity="0.25">
<path d="M495.339 307.257H480.52V311.294H495.339V307.257Z" fill="#EFEFEF"/>
</g>
</g>
</g>
<g style="mix-blend-mode:multiply" opacity="0.25">
<g style="mix-blend-mode:multiply" opacity="0.25">
<path d="M495.338 236.314H393.39V238.168H495.338V236.314Z" fill="#EFEFEF"/>
</g>
</g>
<g style="mix-blend-mode:multiply" opacity="0.25">
<path d="M495.337 213.565H290.715V217.807H495.337V213.565Z" fill="#EFEFEF"/>
</g>
<g style="mix-blend-mode:multiply" opacity="0.25">
<g style="mix-blend-mode:multiply" opacity="0.25">
<path d="M495.337 242.079H393.084V243.932H495.337V242.079Z" fill="#EFEFEF"/>
</g>
</g>
<g style="mix-blend-mode:multiply" opacity="0.25">
<g style="mix-blend-mode:multiply" opacity="0.25">
<path d="M495.337 230.551H393.084V232.404H495.337V230.551Z" fill="#EFEFEF"/>
</g>
</g>
<g style="mix-blend-mode:multiply" opacity="0.25">
<g style="mix-blend-mode:multiply" opacity="0.25">
<path d="M495.337 247.844H393.084V249.697H495.337V247.844Z" fill="#EFEFEF"/>
</g>
</g>
<g style="mix-blend-mode:multiply" opacity="0.25">
<g style="mix-blend-mode:multiply" opacity="0.25">
<path d="M495.337 253.607H393.084V255.46H495.337V253.607Z" fill="#EFEFEF"/>
</g>
</g>
<g style="mix-blend-mode:multiply" opacity="0.25">
<g style="mix-blend-mode:multiply" opacity="0.25">
<path d="M495.337 259.371H393.084V261.225H495.337V259.371Z" fill="#EFEFEF"/>
</g>
</g>
<g style="mix-blend-mode:multiply" opacity="0.25">
<g style="mix-blend-mode:multiply" opacity="0.25">
<path d="M495.337 265.136H393.084V266.989H495.337V265.136Z" fill="#EFEFEF"/>
</g>
</g>
<g style="mix-blend-mode:multiply" opacity="0.25">
<g style="mix-blend-mode:multiply" opacity="0.25">
<path d="M495.337 270.899H393.084V272.752H495.337V270.899Z" fill="#EFEFEF"/>
</g>
</g>
<g style="mix-blend-mode:multiply" opacity="0.25">
<g style="mix-blend-mode:multiply" opacity="0.25">
<path d="M495.337 276.663H393.084V278.516H495.337V276.663Z" fill="#EFEFEF"/>
</g>
</g>
<g style="mix-blend-mode:multiply" opacity="0.25">
<g style="mix-blend-mode:multiply" opacity="0.25">
<path d="M495.339 282.428H405.604V284.281H495.339V282.428Z" fill="#EFEFEF"/>
</g>
</g>
</g>
<g style="mix-blend-mode:multiply" opacity="0.25">
<path d="M502.046 189.428H285.384C284.017 189.428 282.664 189.697 281.401 190.22C280.139 190.742 278.991 191.509 278.025 192.475C277.059 193.442 276.292 194.589 275.769 195.851C275.246 197.114 274.977 198.467 274.978 199.834V208.941H512.451V199.834C512.451 198.467 512.182 197.114 511.659 195.852C511.136 194.589 510.37 193.442 509.403 192.476C508.437 191.509 507.29 190.743 506.028 190.22C504.765 189.697 503.412 189.428 502.046 189.428Z" fill="#7A7AE5"/>
</g>
<g style="mix-blend-mode:multiply" opacity="0.25">
<path d="M481.907 199.541C481.907 200.134 481.731 200.714 481.401 201.208C481.072 201.701 480.603 202.086 480.055 202.313C479.507 202.54 478.903 202.599 478.321 202.483C477.739 202.368 477.205 202.082 476.785 201.662C476.366 201.243 476.08 200.708 475.964 200.126C475.849 199.544 475.908 198.941 476.135 198.393C476.362 197.845 476.747 197.376 477.24 197.047C477.733 196.717 478.313 196.541 478.907 196.541C479.702 196.541 480.465 196.857 481.028 197.42C481.591 197.982 481.907 198.745 481.907 199.541V199.541Z" fill="#CFCFFF"/>
</g>
<g style="mix-blend-mode:multiply" opacity="0.25">
<path d="M491.137 202.541C492.794 202.541 494.137 201.198 494.137 199.541C494.137 197.884 492.794 196.541 491.137 196.541C489.48 196.541 488.137 197.884 488.137 199.541C488.137 201.198 489.48 202.541 491.137 202.541Z" fill="#CFCFFF"/>
</g>
<g style="mix-blend-mode:multiply" opacity="0.25">
<path d="M503.365 202.541C505.022 202.541 506.365 201.198 506.365 199.541C506.365 197.884 505.022 196.541 503.365 196.541C501.708 196.541 500.365 197.884 500.365 199.541C500.365 201.198 501.708 202.541 503.365 202.541Z" fill="#CFCFFF"/>
</g>
</g>
<g style="mix-blend-mode:multiply" opacity="0.55">
<path d="M444.359 224.735H216.906C214.14 224.735 211.896 226.978 211.896 229.745V379.348C211.896 382.115 214.14 384.358 216.906 384.358H444.359C447.126 384.358 449.369 382.115 449.369 379.348V229.745C449.369 226.978 447.126 224.735 444.359 224.735Z" fill="#C4C3FC"/>
</g>
<path d="M449.177 218.52H221.724C218.957 218.52 216.714 220.763 216.714 223.53V373.133C216.714 375.899 218.957 378.143 221.724 378.143H449.177C451.944 378.143 454.187 375.899 454.187 373.133V223.53C454.187 220.763 451.944 218.52 449.177 218.52Z" fill="white"/>
<path d="M249.627 335.123H239.283V361.092H249.627V335.123Z" fill="#FCA70C"/>
<path d="M272.938 312.325H262.593V361.092H272.938V312.325Z" fill="#B1AFFD"/>
<path d="M296.247 317.368H285.903V361.092H296.247V317.368Z" fill="#FCA70C"/>
<path d="M319.557 292.682H309.213V361.093H319.557V292.682Z" fill="#B1AFFD"/>
<g style="mix-blend-mode:multiply" opacity="0.15">
<g style="mix-blend-mode:multiply" opacity="0.26">
<path d="M267.341 312.325H262.593V361.092H267.341V312.325Z" fill="black"/>
</g>
</g>
<g style="mix-blend-mode:multiply" opacity="0.15">
<g style="mix-blend-mode:multiply" opacity="0.26">
<path d="M244.031 335.123H239.283V361.092H244.031V335.123Z" fill="black"/>
</g>
</g>
<g style="mix-blend-mode:multiply" opacity="0.62">
<g style="mix-blend-mode:multiply" opacity="0.26">
<path d="M313.961 292.682H309.213V361.093H313.961V292.682Z" fill="black"/>
</g>
</g>
<g style="mix-blend-mode:multiply" opacity="0.15">
<g style="mix-blend-mode:multiply" opacity="0.26">
<path d="M290.651 317.368H285.903V361.092H290.651V317.368Z" fill="black"/>
</g>
</g>
<path d="M325.03 368.241H232.452V278.468H233.861V366.829H325.027L325.03 368.241Z" fill="#D5DBDA"/>
<path d="M241.961 322.962L241.018 321.911L265.236 300.165L287.668 305.038L311.958 277.997L313.009 278.941L288.169 306.597L265.642 301.697L241.961 322.962Z" fill="#D5DBDA"/>
<path d="M314.911 282.935L308.062 276.367L316.904 274.001L314.911 282.935Z" fill="#D5DBDA"/>
<path d="M340.901 333.281H333.797V340.385H340.901V333.281Z" fill="#B1AFFD"/>
<path d="M340.901 345.729H333.797V352.833H340.901V345.729Z" fill="#FCA70C"/>
<path d="M365.377 348.795H342.858V352.832H365.377V348.795Z" fill="#EFEFEF"/>
<path d="M365.377 336.349H342.858V340.386H365.377V336.349Z" fill="#EFEFEF"/>
<path d="M382.679 333.281H375.575V340.385H382.679V333.281Z" fill="#B1AFFD"/>
<path d="M382.679 345.729H375.575V352.833H382.679V345.729Z" fill="#FCA70C"/>
<path d="M407.154 348.795H384.636V352.832H407.154V348.795Z" fill="#EFEFEF"/>
<path d="M407.154 336.349H384.636V340.386H407.154V336.349Z" fill="#EFEFEF"/>
<path d="M420.299 333.281H413.195V340.385H420.299V333.281Z" fill="#B1AFFD"/>
<path d="M420.299 345.729H413.195V352.833H420.299V345.729Z" fill="#FCA70C"/>
<path d="M437.074 348.795H422.256V352.832H437.074V348.795Z" fill="#EFEFEF"/>
<path d="M437.074 336.349H422.256V340.386H437.074V336.349Z" fill="#EFEFEF"/>
<path d="M437.073 265.406H335.126V267.26H437.073V265.406Z" fill="#EFEFEF"/>
<path d="M437.074 242.657H232.452V246.899H437.074V242.657Z" fill="#EFEFEF"/>
<path d="M437.074 271.171H334.821V273.024H437.074V271.171Z" fill="#EFEFEF"/>
<path d="M437.074 259.643H334.821V261.496H437.074V259.643Z" fill="#EFEFEF"/>
<path d="M437.074 276.935H334.821V278.788H437.074V276.935Z" fill="#EFEFEF"/>
<path d="M437.074 282.699H334.821V284.552H437.074V282.699Z" fill="#EFEFEF"/>
<path d="M437.074 288.463H334.821V290.317H437.074V288.463Z" fill="#EFEFEF"/>
<path d="M437.074 294.228H334.821V296.081H437.074V294.228Z" fill="#EFEFEF"/>
<path d="M437.074 299.991H334.821V301.844H437.074V299.991Z" fill="#EFEFEF"/>
<path d="M437.074 305.755H334.821V307.608H437.074V305.755Z" fill="#EFEFEF"/>
<path d="M437.075 311.52H347.34V313.373H437.075V311.52Z" fill="#EFEFEF"/>
<path d="M443.782 218.52H227.12C225.754 218.519 224.401 218.788 223.138 219.311C221.875 219.834 220.728 220.601 219.762 221.567C218.796 222.533 218.029 223.681 217.506 224.943C216.983 226.206 216.714 227.559 216.714 228.926V238.033H454.187V228.926C454.187 227.559 453.918 226.206 453.396 224.943C452.873 223.681 452.106 222.534 451.14 221.567C450.174 220.601 449.027 219.835 447.764 219.312C446.502 218.789 445.149 218.52 443.782 218.52V218.52Z" fill="#A4A4F7"/>
<path d="M423.645 228.633C423.645 229.226 423.469 229.806 423.139 230.3C422.809 230.793 422.341 231.177 421.793 231.404C421.244 231.632 420.641 231.691 420.059 231.575C419.477 231.459 418.943 231.174 418.523 230.754C418.104 230.335 417.818 229.8 417.702 229.218C417.586 228.636 417.646 228.033 417.873 227.485C418.1 226.937 418.484 226.468 418.978 226.138C419.471 225.809 420.051 225.633 420.645 225.633C421.44 225.633 422.203 225.949 422.766 226.511C423.328 227.074 423.645 227.837 423.645 228.633V228.633Z" fill="#CFCFFF"/>
<path d="M435.874 228.633C435.874 229.226 435.698 229.806 435.368 230.3C435.038 230.793 434.57 231.177 434.022 231.404C433.473 231.632 432.87 231.691 432.288 231.575C431.706 231.459 431.172 231.174 430.752 230.754C430.333 230.335 430.047 229.8 429.931 229.218C429.815 228.636 429.875 228.033 430.102 227.485C430.329 226.937 430.713 226.468 431.207 226.138C431.7 225.809 432.28 225.633 432.874 225.633C433.669 225.633 434.432 225.949 434.995 226.511C435.557 227.074 435.874 227.837 435.874 228.633V228.633Z" fill="#CFCFFF"/>
<path d="M448.101 228.633C448.101 229.226 447.925 229.806 447.595 230.3C447.265 230.793 446.797 231.177 446.249 231.404C445.7 231.632 445.097 231.691 444.515 231.575C443.933 231.459 443.399 231.174 442.979 230.754C442.56 230.335 442.274 229.8 442.158 229.218C442.042 228.636 442.102 228.033 442.329 227.485C442.556 226.937 442.941 226.468 443.434 226.138C443.927 225.809 444.507 225.633 445.101 225.633C445.896 225.633 446.659 225.949 447.222 226.511C447.785 227.074 448.101 227.837 448.101 228.633V228.633Z" fill="#CFCFFF"/>
<g style="mix-blend-mode:multiply" opacity="0.35">
<path d="M523.933 164.6H468.322C468.702 182.632 469.008 200.665 469.24 218.7C469.433 221.456 469.092 224.224 468.235 226.852H468.15C467.413 226.812 467.739 227.043 467.485 228.362C467.485 228.381 467.472 228.404 467.468 228.422C465.219 232.094 460.83 234.102 456.558 235.047C456.523 235.249 456.547 235.457 456.627 235.647C456.372 235.834 456.189 236.103 456.111 236.41C456.033 236.716 456.063 237.04 456.197 237.327C456.457 237.927 459.653 238.746 463.997 238.278C465.65 238.028 467.267 237.58 468.813 236.942C469.459 236.626 470.056 236.219 470.587 235.733C471.144 235.677 471.691 235.545 472.213 235.341L472.39 235.507L477.366 233.341C477.366 233.341 476.822 230.201 476.392 228.566C476.321 228.295 476.21 228.035 476.064 227.797C480.229 216.506 483.493 204.903 485.828 193.097C484.923 207.746 479.66 237.502 479.269 238.526C478.705 239.761 477.821 240.824 476.71 241.605C475.598 242.386 474.298 242.856 472.945 242.967C471.767 243.067 465.975 242.73 466.6 245.395C466.75 246.031 469.757 247.395 474.114 247.682C475.785 247.724 477.455 247.563 479.088 247.202C480.22 246.843 481.273 246.27 482.188 245.513L482.859 246.413L488.135 245.142C488.135 245.142 488.127 243.769 488.093 242.116C487.998 240.964 487.609 239.856 486.963 238.899L487.036 235.899L489.96 235.554C489.96 235.554 495.834 216.554 498.623 210.095C499.88 207.481 500.935 204.775 501.78 202.001C502.477 198.667 502.882 195.278 502.991 191.874C503.486 185.678 504.626 179.55 506.391 173.591C506.476 173.202 506.647 172.837 506.891 172.523C507.426 172.068 508.112 171.829 508.814 171.852C516.289 171.167 519.714 172.438 524.393 170.988C530.56 169.075 531.214 166.277 531.515 166.142C529.116 165.124 526.538 164.599 523.933 164.6V164.6Z" fill="#5851BC"/>
</g>
<g style="mix-blend-mode:multiply" opacity="0.35">
<path d="M544.488 289.079V224.585C534.87 237.176 525.353 248.46 515.735 261.05C511.56 266.51 495.217 284.605 506.366 291.866C509.211 293.719 514.166 293.633 516.643 293.808C525.536 294.439 534.349 291.978 542.995 289.534C543.491 289.394 543.992 289.243 544.488 289.079Z" fill="#5851BC"/>
</g>
<g style="mix-blend-mode:multiply" opacity="0.35">
<path d="M544.489 302.948L539.137 303.361L539.037 303.061L534.87 303.383L533.616 299.838C533.193 298.807 532.461 297.932 531.52 297.334C530.579 296.737 529.476 296.447 528.363 296.504C527.888 296.502 527.42 296.617 527.001 296.839C526.582 297.062 526.224 297.385 525.96 297.779C525.697 298.174 525.535 298.627 525.489 299.1C525.444 299.572 525.516 300.049 525.7 300.486C525.918 301.099 526.527 302.818 526.944 303.996L522.559 304.335L522.653 304.64L513.622 305.34C512.195 305.348 510.087 307.191 510.544 308.478L510.617 308.667C510.62 308.779 510.634 308.891 510.658 309.001L518.469 331.042L518.269 423.876H527.335L544.486 357.193L544.489 302.948ZM530.401 302.258C529.776 302.29 529.157 302.128 528.629 301.793C528.101 301.457 527.69 300.966 527.454 300.387C527.35 300.142 527.309 299.875 527.334 299.609C527.36 299.344 527.45 299.09 527.598 298.868C527.746 298.647 527.947 298.466 528.182 298.341C528.418 298.217 528.68 298.152 528.947 298.154C529.571 298.122 530.189 298.285 530.717 298.62C531.244 298.954 531.655 299.445 531.892 300.023C531.995 300.268 532.036 300.536 532.011 300.801C531.986 301.066 531.896 301.321 531.748 301.542C531.6 301.764 531.4 301.945 531.164 302.07C530.929 302.196 530.667 302.26 530.401 302.259V302.258Z" fill="#5851BC"/>
</g>
<g style="mix-blend-mode:multiply" opacity="0.35">
<path d="M206.521 264.697C204.504 266.921 202.126 271.659 201.158 273.697C200.136 275.708 199.031 276.846 196.158 278.197C192.191 280.012 187.94 281.749 183.858 283.354V293.886C192.164 288.886 199.682 284.23 199.809 284.18C206.158 286.608 211.469 281.328 213.172 277.521C213.936 275.812 212.79 275.114 212.738 274.302C212.709 273.878 213.255 271.402 213.172 271.089C212.672 268.865 206.704 270.809 207.201 269.749C207.637 268.286 208.503 266.988 209.687 266.025C212.611 264.025 214.852 261.815 214.852 260.976C214.847 259.531 207.212 263.937 206.521 264.697Z" fill="#5851BC"/>
</g>
<path d="M661.517 318.224H535.201C531.364 318.224 528.252 321.335 528.252 325.173V473.424C528.252 477.261 531.364 480.373 535.201 480.373H661.517C665.355 480.373 668.466 477.261 668.466 473.424V325.173C668.466 321.335 665.355 318.224 661.517 318.224Z" fill="#A2A7F4"/>
<path d="M658.033 335.194H542.996C542.016 335.194 541.223 335.988 541.223 336.967V366.726C541.223 367.706 542.016 368.499 542.996 368.499H658.033C659.012 368.499 659.806 367.706 659.806 366.726V336.967C659.806 335.988 659.012 335.194 658.033 335.194Z" fill="#9090F4"/>
<path d="M569.941 380.311H542.996C542.016 380.311 541.223 381.104 541.223 382.084V399.68C541.223 400.659 542.016 401.453 542.996 401.453H569.941C570.92 401.453 571.714 400.659 571.714 399.68V382.084C571.714 381.104 570.92 380.311 569.941 380.311Z" fill="#9090F4"/>
<path d="M613.987 380.311H587.042C586.062 380.311 585.269 381.104 585.269 382.084V399.68C585.269 400.659 586.062 401.453 587.042 401.453H613.987C614.966 401.453 615.76 400.659 615.76 399.68V382.084C615.76 381.104 614.966 380.311 613.987 380.311Z" fill="#9090F4"/>
<path d="M658.031 380.311H631.086C630.107 380.311 629.313 381.104 629.313 382.084V399.68C629.313 400.659 630.107 401.453 631.086 401.453H658.031C659.011 401.453 659.804 400.659 659.804 399.68V382.084C659.804 381.104 659.011 380.311 658.031 380.311Z" fill="#9090F4"/>
<path d="M569.941 414.297H542.996C542.016 414.297 541.223 415.091 541.223 416.07V433.665C541.223 434.644 542.016 435.438 542.996 435.438H569.941C570.92 435.438 571.714 434.644 571.714 433.665V416.07C571.714 415.091 570.92 414.297 569.941 414.297Z" fill="#9090F4"/>
<path d="M613.987 414.297H587.042C586.062 414.297 585.269 415.091 585.269 416.07V433.665C585.269 434.644 586.062 435.438 587.042 435.438H613.987C614.966 435.438 615.76 434.644 615.76 433.665V416.07C615.76 415.091 614.966 414.297 613.987 414.297Z" fill="#9090F4"/>
<path d="M569.941 448.283H542.996C542.016 448.283 541.223 449.077 541.223 450.056V467.652C541.223 468.631 542.016 469.425 542.996 469.425H569.941C570.92 469.425 571.714 468.631 571.714 467.652V450.056C571.714 449.077 570.92 448.283 569.941 448.283Z" fill="#9090F4"/>
<path d="M613.987 448.283H587.042C586.062 448.283 585.269 449.077 585.269 450.056V467.652C585.269 468.631 586.062 469.425 587.042 469.425H613.987C614.966 469.425 615.76 468.631 615.76 467.652V450.056C615.76 449.077 614.966 448.283 613.987 448.283Z" fill="#9090F4"/>
<path d="M658.031 414.297H631.086C630.107 414.297 629.313 415.091 629.313 416.07V467.652C629.313 468.631 630.107 469.425 631.086 469.425H658.031C659.011 469.425 659.804 468.631 659.804 467.652V416.07C659.804 415.091 659.011 414.297 658.031 414.297Z" fill="#9090F4"/>
<g opacity="0.45">
<path opacity="0.45" d="M539.067 336.723C539.067 335.746 539.455 334.81 540.146 334.119C540.836 333.428 541.773 333.04 542.749 333.04H653.968C654.945 333.04 655.881 333.428 656.572 334.119C657.262 334.809 657.65 335.746 657.65 336.722V362.661C657.65 363.638 657.262 364.574 656.572 365.265C655.881 365.955 654.945 366.343 653.968 366.343H542.749" fill="#E2DEFF"/>
<path opacity="0.45" d="M567.786 378.157H540.841C539.862 378.157 539.068 378.951 539.068 379.93V397.526C539.068 398.505 539.862 399.299 540.841 399.299H567.786C568.766 399.299 569.559 398.505 569.559 397.526V379.93C569.559 378.951 568.766 378.157 567.786 378.157Z" fill="#E2DEFF"/>
<path opacity="0.45" d="M611.832 378.157H584.886C583.907 378.157 583.113 378.951 583.113 379.93V397.526C583.113 398.505 583.907 399.299 584.886 399.299H611.832C612.811 399.299 613.605 398.505 613.605 397.526V379.93C613.605 378.951 612.811 378.157 611.832 378.157Z" fill="#E2DEFF"/>
<path opacity="0.45" d="M655.877 378.157H628.932C627.953 378.157 627.159 378.951 627.159 379.93V397.526C627.159 398.505 627.953 399.299 628.932 399.299H655.877C656.856 399.299 657.65 398.505 657.65 397.526V379.93C657.65 378.951 656.856 378.157 655.877 378.157Z" fill="#E2DEFF"/>
<path opacity="0.45" d="M567.786 412.143H540.841C539.862 412.143 539.068 412.936 539.068 413.916V431.512C539.068 432.491 539.862 433.285 540.841 433.285H567.786C568.766 433.285 569.559 432.491 569.559 431.512V413.916C569.559 412.936 568.766 412.143 567.786 412.143Z" fill="#E2DEFF"/>
<path opacity="0.45" d="M611.832 412.143H584.886C583.907 412.143 583.113 412.936 583.113 413.916V431.512C583.113 432.491 583.907 433.285 584.886 433.285H611.832C612.811 433.285 613.605 432.491 613.605 431.512V413.916C613.605 412.936 612.811 412.143 611.832 412.143Z" fill="#E2DEFF"/>
<path opacity="0.45" d="M567.786 446.129H540.841C539.862 446.129 539.068 446.923 539.068 447.902V465.498C539.068 466.477 539.862 467.271 540.841 467.271H567.786C568.766 467.271 569.559 466.477 569.559 465.498V447.902C569.559 446.923 568.766 446.129 567.786 446.129Z" fill="#E2DEFF"/>
<path opacity="0.45" d="M611.832 446.129H584.886C583.907 446.129 583.113 446.923 583.113 447.902V465.498C583.113 466.477 583.907 467.271 584.886 467.271H611.832C612.811 467.271 613.605 466.477 613.605 465.498V447.902C613.605 446.923 612.811 446.129 611.832 446.129Z" fill="#E2DEFF"/>
</g>
<path d="M655.878 412.143H628.933C627.953 412.143 627.16 412.936 627.16 413.916V465.498C627.16 466.477 627.953 467.271 628.933 467.271H655.878C656.857 467.271 657.651 466.477 657.651 465.498V413.916C657.651 412.936 656.857 412.143 655.878 412.143Z" fill="#FCA70C"/>
<path d="M629.314 465.742V417.98C629.314 417.496 629.409 417.017 629.594 416.57C629.779 416.124 630.05 415.718 630.392 415.376C630.734 415.034 631.141 414.763 631.587 414.578C632.034 414.393 632.513 414.298 632.997 414.298H656.128C656.567 414.301 657.003 414.383 657.414 414.541C657.154 413.838 656.685 413.231 656.07 412.802C655.455 412.373 654.724 412.142 653.975 412.141H630.843C630.359 412.141 629.88 412.236 629.433 412.421C628.986 412.607 628.58 412.878 628.238 413.22C627.896 413.563 627.625 413.969 627.44 414.416C627.255 414.863 627.16 415.342 627.161 415.826V463.588C627.162 464.337 627.393 465.068 627.822 465.683C628.251 466.298 628.858 466.766 629.561 467.027C629.402 466.617 629.318 466.181 629.314 465.742V465.742Z" fill="#F9C110"/>
<g style="mix-blend-mode:multiply" opacity="0.35">
<path d="M528.252 356.456L532.009 366.34H547.723C547.723 366.34 546.633 409.078 546.564 417.088C546.495 425.098 553.156 480.367 553.156 480.367H562.256L561.307 410.687L574.215 374.938C574.215 374.938 583.925 422.797 587.95 430.804C591.975 438.811 613.603 480.367 613.603 480.367H621.952L600.512 388.723L591.307 356.879L544.907 335.189L528.254 336.83" fill="#5851BC"/>
</g>
<path d="M214.306 391.971L206.98 467.871L278.962 467.887L272 391.843L214.306 391.971Z" fill="#FCA70C"/>
<path d="M226.86 398.918C226.919 398.259 227.235 397.65 227.739 397.222C228.243 396.793 228.895 396.581 229.554 396.629V396.629C229.886 396.573 230.226 396.59 230.55 396.679C230.874 396.767 231.175 396.926 231.432 397.143C231.689 397.36 231.896 397.63 232.038 397.935C232.18 398.239 232.253 398.571 232.254 398.908C232.254 399.244 232.182 399.576 232.041 399.881C231.9 400.187 231.695 400.458 231.438 400.675C231.182 400.893 230.882 401.053 230.558 401.142C230.234 401.232 229.894 401.251 229.562 401.196V401.196C228.903 401.246 228.251 401.035 227.746 400.609C227.24 400.183 226.922 399.576 226.86 398.918V398.918ZM229.56 397.499C229.344 397.442 229.118 397.436 228.9 397.481C228.681 397.525 228.475 397.619 228.299 397.756C228.122 397.892 227.979 398.067 227.881 398.268C227.782 398.468 227.731 398.688 227.731 398.911C227.731 399.135 227.782 399.355 227.881 399.555C227.979 399.755 228.122 399.931 228.299 400.067C228.475 400.203 228.681 400.297 228.9 400.342C229.118 400.387 229.344 400.38 229.56 400.324V400.324C229.776 400.38 230.002 400.387 230.221 400.342C230.44 400.297 230.645 400.203 230.822 400.067C230.999 399.931 231.142 399.755 231.24 399.555C231.339 399.355 231.39 399.135 231.39 398.911C231.39 398.688 231.339 398.468 231.24 398.268C231.142 398.067 230.999 397.892 230.822 397.756C230.645 397.619 230.44 397.525 230.221 397.481C230.002 397.436 229.776 397.442 229.56 397.499Z" fill="#5851BC"/>
<path d="M253.687 398.858H254.121H253.687C253.689 398.582 253.746 398.309 253.854 398.055C253.962 397.802 254.12 397.572 254.318 397.379C254.87 396.848 255.609 396.557 256.376 396.569H256.388C257.046 396.518 257.698 396.728 258.203 397.153C258.708 397.579 259.026 398.186 259.088 398.843C259.085 399.161 259.01 399.474 258.869 399.759C258.728 400.044 258.523 400.294 258.272 400.488C257.739 400.913 257.077 401.141 256.396 401.134V401.134C255.736 401.186 255.082 400.976 254.575 400.55C254.068 400.125 253.749 399.517 253.687 398.858V398.858ZM256.379 397.439C255.843 397.428 255.325 397.628 254.936 397.996C254.819 398.107 254.725 398.24 254.66 398.387C254.595 398.534 254.56 398.693 254.558 398.854V398.854C254.622 399.279 254.849 399.663 255.19 399.926C255.531 400.188 255.96 400.309 256.388 400.262V400.262C256.867 400.269 257.335 400.111 257.713 399.815C257.863 399.701 257.986 399.555 258.072 399.388C258.159 399.22 258.207 399.035 258.213 398.847C258.149 398.422 257.923 398.037 257.582 397.775C257.241 397.512 256.812 397.392 256.385 397.439H256.379Z" fill="#5851BC"/>
<path d="M242.179 415.511C242.43 415.511 242.679 415.511 242.945 415.499C247.874 415.335 251.633 413.746 254.117 410.78C258.229 405.868 257.299 399.02 257.257 398.732C257.219 398.507 257.095 398.305 256.912 398.171C256.728 398.036 256.498 397.978 256.273 398.011C256.047 398.043 255.843 398.162 255.704 398.343C255.566 398.524 255.503 398.752 255.531 398.979C255.539 399.043 256.389 405.366 252.773 409.671C250.621 412.234 247.294 413.609 242.885 413.756C238.617 413.883 235.437 412.776 233.319 410.418C229.477 406.139 230.419 399.109 230.432 399.038C230.459 398.811 230.396 398.583 230.257 398.402C230.118 398.221 229.914 398.102 229.688 398.069C229.462 398.037 229.233 398.094 229.049 398.229C228.865 398.364 228.741 398.566 228.704 398.791C228.66 399.111 227.63 406.681 232.015 411.575C234.359 414.184 237.775 415.511 242.179 415.511Z" fill="#5851BC"/>
<path d="M439.25 97.3363C439.25 97.3363 434.411 93.9222 434.238 92.4882C434.065 91.0542 430.693 85.2443 429.613 84.0883C428.533 82.9323 422.861 80.9663 421.652 80.7883C420.443 80.6103 413.498 81.2053 414.362 82.1533C415.226 83.1013 419.72 82.7532 420.585 83.2752L421.449 83.7922C421.449 83.7922 420.585 84.9663 420.93 85.6743C421.275 86.3823 419.447 87.4743 420.139 88.6863C420.831 89.8983 419.859 89.8143 420.478 91.0773C421.5 93.1603 424.115 94.3213 424.806 93.7523C425.325 94.9863 427.306 97.5032 429.168 97.3312C431.03 97.1592 435.544 101.391 435.544 101.391" fill="#FFB9B0"/>
<path d="M513.04 73.0439C513.204 76.2939 512.974 81.9539 513.904 82.7929C514.834 83.6319 517.838 83.5009 517.838 83.5009C517.838 83.5009 507.1 97.0779 506.138 96.3319C505.176 95.5859 492.478 85.2319 495.332 84.7009C498.186 84.1699 500.979 84.2809 500.898 82.8009L500.656 78.3729" fill="#FFB9B0"/>
<path d="M525.286 145.555C525.286 145.555 504.336 147.933 499.513 148.033C494.69 148.133 494.929 145.613 494.929 145.613C494.684 140.304 493.784 127.795 492.786 123.556C491.855 119.597 491.442 118.135 490.632 114.374C488.832 106.014 488.908 104.417 486.999 94.0988L499.513 84.0398C499.513 84.0398 500.813 87.8888 506.053 87.9548C513.065 88.0438 515.246 83.1338 515.246 83.1338L532.314 94.4658L533.914 122.031L531.872 144.731" fill="#FCA70C"/>
<path d="M513.277 70.0981C512.897 71.7355 512.403 73.3447 511.8 74.914C510.693 77.791 509.063 78.823 506.02 78.895L499.604 79.047C497.963 79.086 495.919 79.147 494.594 77.99C493.269 76.833 493.25 74.9261 492.959 73.3441C492.587 71.3214 492.284 69.288 492.049 67.244C491.59 63.2383 491.401 59.2062 491.484 55.175C491.479 54.6214 491.527 54.0685 491.627 53.524C491.659 53.3002 491.754 53.09 491.901 52.918C492.12 52.7396 492.39 52.6346 492.672 52.618C496.682 51.9858 500.742 51.7257 504.799 51.841C507.663 51.922 510.699 52.256 512.963 54.009C515.245 55.772 516.328 58.639 517.304 61.353C517.46 61.789 517.576 62.3711 517.198 62.6371" fill="#FFB9B0"/>
<path d="M466.287 220.285C466.586 222.173 467.003 224.041 467.537 225.876C468.092 227.299 472.765 225.986 473.074 225.066C473.383 224.146 471.604 217.366 471.604 217.366" fill="#ED9C80"/>
<path d="M474.7 226.244C475.105 227.779 475.616 230.728 475.616 230.728L470.943 232.761L470.177 232.042C469.455 232.892 468.575 233.594 467.585 234.109C466.135 234.709 464.617 235.13 463.064 235.364C458.985 235.802 455.984 235.036 455.741 234.471C454.73 232.107 460.141 231.471 461.216 231.191C462.45 230.868 463.576 230.222 464.477 229.319C465.378 228.417 466.022 227.29 466.342 226.055C466.581 224.817 466.273 224.599 466.965 224.636C467.187 224.644 467.405 224.697 467.606 224.792C467.807 224.886 467.987 225.02 468.134 225.186C468.54 225.642 469.077 225.961 469.671 226.099C470.266 226.237 470.888 226.188 471.453 225.957C472.135 225.681 472.714 225.199 473.108 224.578C473.511 224.663 473.878 224.867 474.162 225.165C474.446 225.462 474.634 225.838 474.7 226.244V226.244Z" fill="#38287C"/>
<path d="M486.935 165.819C479.059 167.211 471.017 167.402 463.083 166.384C464.115 169.344 466.645 173.134 467.609 177.301C470.791 191.057 471.896 209.537 472.704 220.969C472.704 220.969 471.177 223.904 466.28 221.669C458.965 203.601 446.192 166.985 446.31 159.04C446.462 148.927 471.703 146.485 490.202 143.992" fill="#453087"/>
<path d="M519.18 145.571C524.998 149.818 486.935 165.819 486.935 165.819C482.826 166.627 478.648 167.025 474.461 167.009C474.043 166.27 473.73 165.476 473.533 164.65C473.309 163.55 473.433 162.394 473.233 161.285C472.995 160.212 472.534 159.2 471.879 158.317C471.224 157.434 470.391 156.698 469.433 156.159C467.508 155.094 465.395 154.41 463.212 154.144C458.065 153.313 449.081 153.895 449.081 153.895C460.521 145.463 483.926 144.36 494.828 143.666C496.915 147.105 518.345 144.962 519.18 145.571Z" fill="#38287C"/>
<path d="M478.351 229.899C478.319 231.811 478.406 233.723 478.613 235.623C478.913 237.123 483.743 236.639 484.206 235.785C484.669 234.931 484.092 227.951 484.092 227.951" fill="#ED9C80"/>
<path d="M485.604 237.227C485.737 238.812 485.729 241.803 485.729 241.803L480.776 242.997L480.145 242.154C479.287 242.866 478.299 243.405 477.235 243.741C475.702 244.08 474.132 244.231 472.562 244.192C468.47 243.918 465.648 242.643 465.506 242.044C464.918 239.544 470.358 239.855 471.465 239.763C472.736 239.658 473.957 239.217 475.001 238.484C476.044 237.751 476.874 236.752 477.403 235.592C477.854 234.414 477.59 234.146 478.265 234.304C478.482 234.351 478.687 234.44 478.869 234.568C479.05 234.696 479.203 234.859 479.32 235.048C479.641 235.567 480.114 235.975 480.676 236.213C481.238 236.452 481.86 236.511 482.456 236.381C483.175 236.228 483.829 235.854 484.325 235.311C484.707 235.464 485.033 235.729 485.262 236.071C485.49 236.413 485.609 236.816 485.604 237.227V237.227Z" fill="#38287C"/>
<path d="M531.874 144.729C523.301 145.474 514.693 145.748 506.089 145.551C502.795 145.551 477.889 150.224 475.504 154.445C471.585 161.388 478.061 201.966 477.461 231.016C477.461 231.016 480.448 233.508 485.729 231.166C487.042 216.895 495.474 183.23 489.657 167.513C503.39 169.334 514.468 171.146 526.951 167.013C529.873 166.045 532.058 163.981 533.373 160.205C534.688 156.408 534.001 148.119 531.874 144.729Z" fill="#453087"/>
<path d="M499.513 84.0371C499.513 84.0371 496.52 84.2011 495.937 84.2491C493.418 84.3742 490.928 84.8453 488.537 85.6491C485.143 86.9061 482.749 90.0631 479.986 92.5321C477.325 94.9081 463.539 108.045 460.967 108.532C458.395 109.019 435.821 93.5471 435.821 93.5471L430.311 99.0591C430.311 99.0591 454.804 121.692 462.111 121.731C465.656 121.75 485.211 111.456 491.467 107.456L499.513 84.0371Z" fill="#FCA70C"/>
<g style="mix-blend-mode:multiply" opacity="0.25">
<path d="M462.167 117.381C457.132 117.666 434.058 100.043 431.382 97.9863L430.312 99.0563C430.312 99.0563 454.805 121.689 462.112 121.728C465.067 121.743 479.13 114.6 487.357 109.902L489.488 108.666L488.211 101.056C488.211 101.056 467.515 117.079 462.167 117.381Z" fill="#CE4A30"/>
</g>
<path d="M438.665 149.257H494.734L484.679 116.483C484.409 115.602 483.863 114.83 483.121 114.282C482.38 113.734 481.482 113.438 480.56 113.438H431.46C431.023 113.438 430.592 113.541 430.201 113.737C429.811 113.934 429.472 114.22 429.212 114.571C428.953 114.923 428.779 115.331 428.705 115.762C428.632 116.192 428.66 116.635 428.789 117.052L438.665 149.257Z" fill="#A4A4F7"/>
<path d="M437.961 149.257H493.185L483.132 116.483C482.862 115.602 482.315 114.83 481.574 114.282C480.832 113.734 479.934 113.438 479.012 113.438H429.912C429.475 113.439 429.045 113.543 428.655 113.74C428.265 113.937 427.927 114.222 427.667 114.573C427.407 114.925 427.233 115.332 427.159 115.762C427.085 116.193 427.112 116.635 427.239 117.052L436.87 148.452C436.942 148.686 437.087 148.89 437.283 149.035C437.479 149.179 437.717 149.258 437.961 149.257V149.257Z" fill="#7A74D1"/>
<g style="mix-blend-mode:multiply" opacity="0.25">
<path d="M524.178 99.8338C521.388 112.452 520.894 122.325 520.105 131.348C510.305 135.148 506.318 140.813 496.731 145.079C496.731 145.079 489.161 143.822 488.367 146.679C487.908 148.326 497.229 149.637 497.229 149.637C506.114 149.679 529.546 143.186 531.129 142.75C532.712 142.314 537.329 112.528 537.518 96.3628C537.543 94.0628 537.462 91.5758 536.027 89.7848C535.224 88.8764 534.239 88.1476 533.136 87.6458C526.884 84.4458 522.253 83.5768 515.245 83.1328" fill="#CE4A30"/>
</g>
<path d="M498.053 147.033C497 145.708 495.081 145.515 493.388 145.556C492.135 145.587 490.884 145.687 489.641 145.856C489.076 145.933 488.424 146.066 488.366 146.678C488.308 147.29 491.112 146.678 492.582 147.102C489.699 147.35 486.805 147.429 483.913 147.339C483.576 147.304 483.236 147.338 482.913 147.439C482.753 147.493 482.614 147.595 482.514 147.731C482.414 147.867 482.357 148.03 482.352 148.199C482.396 148.462 482.539 148.698 482.752 148.859C483.616 149.528 484.649 149.943 485.735 150.059C490.147 150.972 494.729 150.567 498.913 148.896" fill="#FFB9B0"/>
<path d="M523.568 99.5969C523.337 113.085 522.38 119.258 522.642 132.745C515.871 134.193 506.498 141.859 496.911 146.127C496.594 147.297 496.707 148.541 497.229 149.635C497.96 149.903 529.567 142.208 532.08 139.892C534.342 137.807 537.335 112.526 537.52 96.3609C537.545 94.0609 537.464 91.5739 536.029 89.7829C535.227 88.8745 534.242 88.1456 533.138 87.6439C526.886 84.4439 522.255 83.5749 515.247 83.1309" fill="#FCA70C"/>
<path opacity="0.45" d="M466.463 131.913C466.663 134.788 463.263 137.113 458.876 137.113C454.489 137.113 450.763 134.785 450.562 131.913C450.361 129.041 453.762 126.713 458.149 126.713C462.536 126.713 466.261 129.038 466.463 131.913Z" stroke="#A4A4F7" stroke-miterlimit="10"/>
<path d="M463.562 132.11C463.624 130.514 461.413 129.132 458.624 129.023C455.834 128.915 453.522 130.12 453.46 131.715C453.398 133.311 455.609 134.693 458.398 134.802C461.188 134.911 463.5 133.705 463.562 132.11Z" fill="#A4A4F7"/>
<path d="M503.401 61.474C503.295 60.974 502.176 60.874 501.05 61.011C499.924 61.148 496.927 61.53 496.312 62.011C495.697 62.492 495.73 62.836 495.402 62.873C495.074 62.91 495.057 62.573 494.341 62.258C493.158 62.0486 491.946 62.0649 490.769 62.306C489.645 62.447 488.576 62.696 488.599 63.212C488.598 63.7625 488.754 64.3017 489.05 64.766C489.278 64.909 489.278 64.884 490.163 66.918C490.241 67.1947 490.373 67.453 490.552 67.6777C490.731 67.9023 490.954 68.0887 491.206 68.2257C491.459 68.3628 491.736 68.4478 492.022 68.4757C492.308 68.5036 492.597 68.4738 492.871 68.388C494.722 67.988 494.838 65.877 494.981 64.996C495.124 64.115 495.257 63.985 495.538 63.949C495.819 63.913 496.012 64.003 496.369 64.821C496.726 65.639 496.984 67.521 498.88 67.631C501.362 67.77 502.438 66.921 502.78 65.331C503.245 63.173 503.139 63.165 503.326 62.969C503.948 62.9726 504.568 63.0254 505.181 63.127L505.14 62.483C504.537 62.1887 503.956 61.8515 503.401 61.474V61.474ZM494.387 65.817C494.419 66.3546 494.249 66.8846 493.91 67.3034C493.572 67.7222 493.089 67.9995 492.557 68.081C491.419 68.224 490.898 67.62 490.281 66.162C489.844 65.3593 489.713 64.425 489.913 63.533C490.106 63.184 490.721 63.197 492.133 63.107C493.545 63.017 494.019 62.987 494.247 63.607C494.4 64.333 494.448 65.0775 494.387 65.817ZM502.479 64.627C502.244 66.191 501.671 66.943 500.111 67.127C497.901 67.393 497.475 66.521 497.149 65.468C496.907 64.7668 496.768 64.0342 496.736 63.293C496.804 62.635 497.268 62.545 498.659 62.284C500.05 62.023 501.909 61.696 502.184 61.984C502.601 62.7997 502.706 63.7395 502.479 64.627V64.627Z" fill="#483A99"/>
<path d="M518.389 58.0288C518.262 56.9073 518.056 55.7962 517.772 54.7038C517.427 53.2746 516.788 51.933 515.896 50.764C515.004 49.5951 513.879 48.6244 512.592 47.9138C508.96 46.1021 504.79 45.6868 500.872 46.7468C498.727 47.3468 497.931 48.4768 496.826 48.4468C495.787 48.2491 494.779 47.9166 493.826 47.4578C485.441 44.4438 486.847 52.6518 487.74 54.9058C488.14 55.9058 490.04 56.6298 490.291 57.0428C490.493 58.1464 490.622 59.2622 490.677 60.3828C490.741 60.6567 490.869 60.9114 491.051 61.126C491.232 61.3406 491.462 61.5088 491.722 61.6168C491.722 61.6168 491.768 58.9748 491.809 58.6168C491.826 58.1392 491.945 57.6709 492.159 57.2437C492.373 56.8164 492.677 56.4402 493.049 56.1408C493.986 55.6546 495.012 55.3663 496.065 55.2938C498.159 55.3515 500.235 55.6953 502.236 56.3158C503.802 57.6598 504.205 60.7248 504.645 62.5278C504.845 63.3688 505.063 63.9338 505.405 63.9218C505.665 61.4398 506.527 61.3778 508.012 62.2218C508.803 62.6748 509.248 64.2468 509.275 65.5778C509.338 66.3819 509.124 67.1833 508.67 67.8496C508.215 68.5158 507.547 69.007 506.775 69.2418C506.183 69.3688 507.969 72.7538 508.796 73.5988C509.053 73.8914 509.347 74.1495 509.67 74.3668C509.988 74.5362 510.327 74.662 510.679 74.7408L511.879 75.0668C512.406 75.2602 512.974 75.3089 513.526 75.2078C514.411 74.9588 514.878 74.0198 515.277 73.1908C515.931 71.8328 516.685 70.5158 517.221 69.1038C518.463 65.5525 518.863 61.7611 518.389 58.0288V58.0288Z" fill="#483A99"/>
<path d="M669.474 182.293H563.346L576.055 172.893V126.993C576.055 125.153 576.786 123.389 578.086 122.089C579.387 120.788 581.151 120.058 582.99 120.058H669.474C671.313 120.058 673.077 120.788 674.378 122.089C675.679 123.389 676.409 125.153 676.409 126.993V175.363C676.408 177.201 675.677 178.964 674.376 180.263C673.076 181.563 671.313 182.293 669.474 182.293Z" fill="#D5D2FF"/>
<path opacity="0.45" d="M667.189 129.006H618.687V133.647H667.189V129.006Z" fill="white"/>
<path opacity="0.45" d="M667.189 135.938H618.687V140.579H667.189V135.938Z" fill="white"/>
<path opacity="0.45" d="M667.189 142.872H618.687V147.513H667.189V142.872Z" fill="white"/>
<path opacity="0.45" d="M667.189 149.627H618.687V154.268H667.189V149.627Z" fill="white"/>
<path opacity="0.45" d="M652.511 157.709H618.687V162.35H652.511V157.709Z" fill="white"/>
<path d="M611.492 129.006H587.795C585.926 129.006 584.41 130.521 584.41 132.391V161.245C584.41 163.114 585.926 164.63 587.795 164.63H611.492C613.362 164.63 614.877 163.114 614.877 161.245V132.391C614.877 130.521 613.362 129.006 611.492 129.006Z" fill="#A9ADFF"/>
<path opacity="0.45" d="M614.877 169.065H584.41V172.889H614.877V169.065Z" fill="white"/>
<path d="M602.648 152.128H591.592C591.289 152.128 590.995 152.028 590.754 151.844C590.514 151.66 590.34 151.402 590.261 151.11L588.134 143.255C588.079 143.05 588.072 142.836 588.113 142.628C588.154 142.421 588.242 142.225 588.371 142.057C588.499 141.889 588.665 141.753 588.855 141.659C589.044 141.565 589.253 141.517 589.465 141.517H604.774C604.986 141.516 605.195 141.565 605.385 141.658C605.575 141.752 605.741 141.888 605.869 142.056C605.998 142.225 606.086 142.42 606.127 142.628C606.168 142.836 606.16 143.05 606.105 143.255L603.978 151.11C603.899 151.402 603.726 151.66 603.485 151.844C603.245 152.028 602.951 152.128 602.648 152.128V152.128Z" fill="white"/>
<path d="M604.596 153.891H591.281C591.208 153.891 591.138 153.862 591.086 153.811C591.035 153.759 591.006 153.689 591.006 153.616C591.006 153.543 591.035 153.474 591.086 153.422C591.138 153.37 591.208 153.341 591.281 153.341H604.389L609.023 137.182C609.039 137.125 609.073 137.074 609.121 137.038C609.169 137.002 609.227 136.982 609.287 136.982H612.187C612.26 136.982 612.33 137.011 612.381 137.063C612.433 137.115 612.462 137.184 612.462 137.257C612.462 137.33 612.433 137.4 612.381 137.452C612.33 137.503 612.26 137.532 612.187 137.532H609.497L604.863 153.691C604.847 153.749 604.812 153.801 604.763 153.837C604.715 153.873 604.656 153.892 604.596 153.891V153.891Z" fill="white"/>
<path d="M593.32 156.055C593.32 156.374 593.226 156.685 593.049 156.951C592.872 157.216 592.621 157.422 592.327 157.544C592.032 157.666 591.708 157.699 591.396 157.637C591.083 157.575 590.796 157.421 590.571 157.196C590.345 156.971 590.192 156.684 590.129 156.372C590.067 156.059 590.099 155.735 590.22 155.441C590.342 155.146 590.548 154.895 590.813 154.717C591.078 154.54 591.39 154.446 591.708 154.445C592.135 154.445 592.545 154.615 592.847 154.917C593.15 155.219 593.32 155.628 593.32 156.055Z" fill="white"/>
<path d="M603.417 157.665C604.306 157.665 605.027 156.944 605.027 156.055C605.027 155.166 604.306 154.445 603.417 154.445C602.528 154.445 601.807 155.166 601.807 156.055C601.807 156.944 602.528 157.665 603.417 157.665Z" fill="white"/>
<path d="M275.218 118.187H410.435L394.241 106.207V32.2275C394.241 31.0674 394.013 29.9186 393.569 28.8468C393.125 27.775 392.474 26.8012 391.653 25.981C390.833 25.1607 389.859 24.5101 388.787 24.0663C387.715 23.6225 386.566 23.3943 385.406 23.3945H275.218C274.058 23.3943 272.909 23.6225 271.837 24.0663C270.766 24.5101 269.792 25.1607 268.971 25.981C268.151 26.8012 267.5 27.775 267.056 28.8468C266.612 29.9186 266.383 31.0674 266.383 32.2275V109.352C266.383 111.695 267.314 113.942 268.971 115.599C270.628 117.256 272.875 118.187 275.218 118.187Z" fill="#D5D2FF"/>
<g opacity="0.45">
<path opacity="0.45" d="M278.132 43.0244L339.926 43.0244V37.1114L278.132 37.1114V43.0244Z" fill="white"/>
<path opacity="0.45" d="M278.132 51.8574L339.926 51.8574V45.9444L278.132 45.9444V51.8574Z" fill="white"/>
<path opacity="0.45" d="M278.132 60.6904L339.926 60.6904V54.7774L278.132 54.7774V60.6904Z" fill="white"/>
<path opacity="0.45" d="M278.132 69.2969L339.926 69.2969V63.3839L278.132 63.3839V69.2969Z" fill="white"/>
<path opacity="0.45" d="M278.132 77.9033L339.926 77.9033V71.9903L278.132 71.9903V77.9033Z" fill="white"/>
<path opacity="0.45" d="M278.132 93.543L339.926 93.543V87.63L278.132 87.63V93.543Z" fill="white"/>
<path opacity="0.45" d="M278.131 102.856L383.596 102.856V96.9434L278.131 96.9434V102.856Z" fill="white"/>
</g>
<path d="M349.093 82.499H379.284C381.666 82.499 383.597 80.568 383.597 78.186V41.424C383.597 39.042 381.666 37.111 379.284 37.111L349.093 37.111C346.711 37.111 344.78 39.042 344.78 41.424V78.186C344.78 80.568 346.711 82.499 349.093 82.499Z" fill="#C4C4F7"/>
<path opacity="0.45" d="M344.78 93.0234H383.597V88.1504H344.78V93.0234Z" fill="white"/>
<path d="M360.361 66.5648H374.447C374.834 66.5654 375.211 66.4383 375.518 66.2033C375.825 65.9683 376.047 65.6384 376.147 65.2648L378.855 55.2648C378.926 55.0044 378.936 54.7312 378.884 54.4664C378.832 54.2016 378.719 53.9523 378.555 53.738C378.392 53.5236 378.18 53.35 377.938 53.2304C377.696 53.1109 377.43 53.0488 377.16 53.0488H357.65C357.381 53.0488 357.114 53.1109 356.872 53.2304C356.63 53.35 356.419 53.5236 356.255 53.738C356.091 53.9523 355.979 54.2016 355.927 54.4664C355.875 54.7312 355.885 55.0044 355.955 55.2648L358.663 65.2648C358.764 65.6381 358.985 65.9677 359.292 66.2027C359.599 66.4377 359.975 66.565 360.361 66.5648V66.5648Z" fill="white"/>
<path d="M357.878 68.8154H374.843C374.889 68.8154 374.935 68.8063 374.977 68.7888C375.02 68.7712 375.058 68.7454 375.091 68.7129C375.123 68.6804 375.149 68.6418 375.167 68.5993C375.184 68.5569 375.193 68.5114 375.193 68.4654C375.193 68.4194 375.184 68.3739 375.167 68.3315C375.149 68.289 375.123 68.2504 375.091 68.2179C375.058 68.1854 375.02 68.1596 374.977 68.142C374.935 68.1245 374.889 68.1154 374.843 68.1154H358.143L352.243 47.5284C352.222 47.4554 352.178 47.3913 352.118 47.3456C352.057 47.2999 351.983 47.2753 351.907 47.2754H348.216C348.17 47.2754 348.125 47.2844 348.082 47.302C348.04 47.3196 348.001 47.3454 347.969 47.3779C347.936 47.4104 347.91 47.449 347.893 47.4915C347.875 47.5339 347.866 47.5794 347.866 47.6254C347.866 47.6714 347.875 47.7169 347.893 47.7593C347.91 47.8018 347.936 47.8404 347.969 47.8729C348.001 47.9054 348.04 47.9312 348.082 47.9488C348.125 47.9664 348.17 47.9754 348.216 47.9754H351.643L357.543 68.5624C357.564 68.6352 357.608 68.6993 357.668 68.7449C357.729 68.7905 357.802 68.8153 357.878 68.8154V68.8154Z" fill="white"/>
<path d="M372.249 71.5754C372.249 71.9811 372.37 72.3776 372.595 72.7147C372.821 73.0519 373.141 73.3146 373.516 73.4697C373.891 73.6247 374.303 73.6652 374.701 73.5858C375.099 73.5065 375.464 73.311 375.751 73.024C376.038 72.737 376.233 72.3715 376.312 71.9736C376.391 71.5757 376.35 71.1633 376.195 70.7886C376.039 70.4139 375.776 70.0937 375.439 69.8685C375.101 69.6433 374.705 69.5232 374.299 69.5234C374.03 69.5234 373.763 69.5765 373.514 69.6797C373.265 69.7828 373.039 69.934 372.849 70.1246C372.658 70.3151 372.507 70.5414 372.404 70.7903C372.302 71.0393 372.249 71.3061 372.249 71.5754Z" fill="white"/>
<path d="M357.33 71.5754C357.33 71.9811 357.451 72.3776 357.676 72.7147C357.902 73.0519 358.222 73.3146 358.597 73.4697C358.972 73.6247 359.384 73.6652 359.782 73.5858C360.18 73.5065 360.545 73.311 360.832 73.024C361.119 72.737 361.314 72.3715 361.393 71.9736C361.472 71.5757 361.431 71.1633 361.276 70.7886C361.12 70.4139 360.857 70.0937 360.52 69.8685C360.182 69.6433 359.786 69.5232 359.38 69.5234C359.111 69.5234 358.844 69.5765 358.595 69.6797C358.346 69.7828 358.12 69.934 357.93 70.1246C357.739 70.3151 357.588 70.5414 357.486 70.7903C357.383 71.0393 357.33 71.3061 357.33 71.5754Z" fill="white"/>
<path d="M28.547 267.792H144.052L130.219 257.834V196.342C130.219 195.378 130.024 194.423 129.644 193.532C129.265 192.641 128.709 191.832 128.008 191.15C127.307 190.468 126.475 189.927 125.56 189.558C124.644 189.19 123.663 189 122.672 189H28.547C27.556 189 26.5747 189.19 25.659 189.558C24.7434 189.927 23.9114 190.468 23.2106 191.15C22.5097 191.832 21.9538 192.641 21.5745 193.532C21.1952 194.423 21 195.378 21 196.342V260.448C21 262.396 21.7951 264.264 23.2105 265.641C24.6258 267.018 26.5454 267.792 28.547 267.792Z" fill="#D5D2FF"/>
<g opacity="0.45">
<path opacity="0.45" d="M31.0357 205.317H83.8213V200.402H31.0357V205.317Z" fill="white"/>
<path opacity="0.45" d="M31.0357 212.659H83.8213V207.744H31.0357V212.659Z" fill="white"/>
<path opacity="0.45" d="M31.0357 220.001H83.8213V215.086H31.0357V220.001Z" fill="white"/>
<path opacity="0.45" d="M31.0357 227.155H83.8213V222.24H31.0357V227.155Z" fill="white"/>
<path opacity="0.45" d="M31.0357 234.309H83.8213V229.394H31.0357V234.309Z" fill="white"/>
<path opacity="0.45" d="M31.0357 247.309H83.8213V242.394H31.0357V247.309Z" fill="white"/>
<path opacity="0.45" d="M31.0348 255.05H121.125V250.135H31.0348V255.05Z" fill="white"/>
</g>
<path d="M91.653 238.128H117.443C119.477 238.128 121.127 236.523 121.127 234.543V203.986C121.127 202.006 119.477 200.401 117.443 200.401H91.653C89.6182 200.401 87.9687 202.006 87.9687 203.986V234.543C87.9687 236.523 89.6182 238.128 91.653 238.128Z" fill="#C4C4F7"/>
<path opacity="0.45" d="M87.9687 246.876H121.127V242.825H87.9687V246.876Z" fill="white"/>
<path d="M101.278 224.884H113.311C113.641 224.885 113.963 224.779 114.225 224.584C114.488 224.388 114.677 224.114 114.763 223.803L117.076 215.491C117.136 215.275 117.145 215.048 117.1 214.828C117.056 214.608 116.96 214.4 116.82 214.222C116.68 214.044 116.499 213.9 116.293 213.8C116.086 213.701 115.859 213.649 115.628 213.649H98.9622C98.7317 213.649 98.5043 213.701 98.2976 213.8C98.0909 213.9 97.9105 214.044 97.7705 214.222C97.6304 214.4 97.5345 214.608 97.49 214.828C97.4456 215.048 97.4539 215.275 97.5143 215.491L99.8275 223.803C99.9136 224.114 100.102 224.388 100.364 224.583C100.627 224.778 100.948 224.884 101.278 224.884V224.884Z" fill="white"/>
<path d="M99.1569 226.754H113.649C113.688 226.754 113.727 226.746 113.763 226.732C113.799 226.717 113.832 226.696 113.86 226.669C113.888 226.642 113.91 226.61 113.925 226.574C113.94 226.539 113.948 226.501 113.948 226.463C113.948 226.425 113.94 226.387 113.925 226.352C113.91 226.316 113.888 226.284 113.86 226.257C113.832 226.23 113.799 226.209 113.763 226.194C113.727 226.18 113.688 226.172 113.649 226.172H99.3833L94.3434 209.06C94.3256 208.999 94.2879 208.946 94.2361 208.908C94.1843 208.87 94.1212 208.85 94.0564 208.85H90.9035C90.8642 208.85 90.8253 208.857 90.7891 208.872C90.7528 208.886 90.7198 208.908 90.6921 208.935C90.6643 208.962 90.6423 208.994 90.6273 209.029C90.6122 209.065 90.6045 209.102 90.6045 209.141C90.6045 209.179 90.6122 209.217 90.6273 209.252C90.6423 209.287 90.6643 209.319 90.6921 209.346C90.7198 209.373 90.7528 209.395 90.7891 209.409C90.8253 209.424 90.8642 209.431 90.9035 209.431H93.8309L98.8708 226.544C98.8886 226.604 98.9261 226.657 98.9777 226.695C99.0294 226.733 99.0922 226.754 99.1569 226.754V226.754Z" fill="white"/>
<path d="M111.433 229.048C111.433 229.386 111.536 229.715 111.728 229.995C111.921 230.276 112.195 230.494 112.515 230.623C112.835 230.752 113.187 230.785 113.527 230.719C113.867 230.654 114.179 230.491 114.424 230.252C114.669 230.014 114.836 229.71 114.903 229.379C114.971 229.049 114.936 228.706 114.803 228.394C114.67 228.083 114.445 227.817 114.157 227.63C113.869 227.442 113.53 227.343 113.184 227.343C112.954 227.343 112.726 227.387 112.513 227.473C112.301 227.558 112.108 227.684 111.945 227.842C111.782 228.001 111.653 228.189 111.565 228.396C111.478 228.603 111.432 228.825 111.433 229.048Z" fill="white"/>
<path d="M98.6885 229.048C98.6886 229.386 98.7916 229.715 98.9842 229.995C99.1769 230.276 99.4506 230.494 99.7708 230.623C100.091 230.752 100.443 230.785 100.783 230.719C101.123 230.654 101.435 230.491 101.68 230.252C101.925 230.014 102.092 229.71 102.159 229.379C102.226 229.049 102.192 228.706 102.059 228.394C101.926 228.083 101.701 227.817 101.413 227.63C101.125 227.442 100.786 227.343 100.44 227.343C100.21 227.343 99.9817 227.387 99.7691 227.473C99.5565 227.558 99.3634 227.684 99.2008 227.842C99.0381 228.001 98.9092 228.189 98.8213 228.396C98.7334 228.603 98.6883 228.825 98.6885 229.048Z" fill="white"/>
<path d="M587.952 507.601C620.862 507.601 647.54 504.789 647.54 501.319C647.54 497.85 620.862 495.037 587.952 495.037C555.043 495.037 528.364 497.85 528.364 501.319C528.364 504.789 555.043 507.601 587.952 507.601Z" fill="#EAE6FF"/>
<path d="M555.973 492.403C555.473 493.377 553.073 495.628 549.755 497.111C546.437 498.594 539.401 499.29 543.31 500.596C547.219 501.902 551.774 501.111 554.083 500.741C556.49 500.405 558.92 500.258 561.35 500.301C564.941 500.278 564.97 500.056 564.486 496.008C563.819 490.436 557.589 489.254 555.973 492.403Z" fill="#9AA3F4"/>
<path d="M621.028 490.383C620.828 491.507 622.428 494.913 619.568 497.413C616.708 499.913 610.232 502.545 614.529 502.643C618.166 502.764 621.786 502.09 625.136 500.668C627.319 499.588 625.576 497.889 628.287 497.035C631.857 495.907 631.12 493.282 629.265 491.658C626.888 486.305 621.672 486.746 621.028 490.383Z" fill="#9AA3F4"/>
<path d="M607.344 376.96C607.344 376.96 615.9 351.802 591.623 331.078C591.623 331.078 578.613 336.258 568.195 336.883C564.075 337.238 559.928 337.149 555.826 336.619C555.826 336.619 555.133 358.969 555.104 371.019L607.344 376.96Z" fill="#4A41A3"/>
<path d="M553.137 418.745C552.668 407.496 564.864 408.971 569.362 417.374C578.662 434.75 565.931 474.769 564.249 493.731C562.5 494.408 559.569 494.932 557.81 494.132C556.983 493.657 556.328 492.933 555.939 492.062C556.208 468.802 553.637 430.772 553.137 418.745Z" fill="#0A0A0A"/>
<path d="M568.94 420.449C567.54 425.043 551.967 429.874 553.23 413.155C553.789 405.74 555.28 364.795 555.567 360.849C555.854 356.903 556.516 351.133 558.423 350.412C567.963 346.812 584.836 359.285 582.323 374.106C580.65 384.013 571.848 410.923 568.94 420.449Z" fill="#0A0A0A"/>
<path d="M593.439 426.834C589.676 416.225 601.905 414.347 608.839 420.884C625.081 436.191 625.71 472.26 629.692 490.877C627.546 492.167 625.097 492.868 622.592 492.91C622.217 492.899 621.848 492.804 621.513 492.632C621.178 492.461 620.886 492.217 620.656 491.919C614.057 469.613 597.466 438.178 593.439 426.834Z" fill="#0A0A0A"/>
<path d="M609.503 423.371C609.929 428.154 596.95 438.04 591.842 422.071C589.576 414.989 579.877 373.138 578.662 369.371C577.447 365.604 577.779 357.829 579.277 356.446C586.767 349.526 603.671 355.611 606.911 370.289C609.079 380.099 608.622 413.452 609.503 423.371Z" fill="#0A0A0A"/>
<path d="M542.665 240.135C543.107 239.668 543.55 239.201 543.944 238.695C547.02 234.761 547.469 231.273 550.318 226.708C550.924 225.345 551.616 224.022 552.389 222.746C553.688 221.212 555.255 219.928 557.014 218.955C558.345 218.255 557.201 221.192 557.201 221.192C557.201 221.192 558.331 219.553 559.423 219.67C559.849 219.716 559.923 222.219 559.93 222.647C559.98 226.1 559.178 229.513 557.596 232.582C557.154 233.261 556.88 234.035 556.796 234.841C557.803 234.681 558.738 234.221 559.479 233.519C559.85 233.173 560.297 232.918 560.785 232.776C561.273 232.634 561.787 232.608 562.287 232.701C562.14 233.107 561.959 233.499 561.747 233.874C560.532 236.154 559.167 238.582 556.833 239.692C555.433 240.352 553.824 240.471 552.461 241.192C550 242.501 548.804 245.529 546.305 246.765" fill="#F2A181"/>
<path d="M565.474 223.23L556.854 219.624C556.524 219.487 556.146 219.642 556.008 219.971L548.951 236.846C548.813 237.175 548.969 237.553 549.298 237.691L557.919 241.296C558.248 241.434 558.627 241.279 558.764 240.949L565.821 224.075C565.959 223.746 565.804 223.367 565.474 223.23Z" fill="#5E5DBB"/>
<path d="M565.133 224.226L556.911 220.787L550.168 236.907L558.391 240.346L565.133 224.226Z" fill="#B4B4DB"/>
<path d="M565.132 256.05C561.114 256.305 557.132 256.978 553.252 258.056C544.799 260.594 541.891 264.509 538.971 266.127C544.643 258.92 550.971 243.636 550.971 243.636C550.971 243.636 543.344 237.372 542.471 238.855C541.598 240.338 509.587 277.792 510.59 283.855C511.003 286.355 514.709 288.827 517.984 288.715C527.06 288.403 537.599 285.101 548.648 281.485C553.506 279.896 555.004 283.321 555.004 283.321" fill="#7A74D1"/>
<path d="M538.968 266.13C538.968 266.13 534.937 274.255 533.726 274.785C532.515 275.315 536.665 273.092 538.935 270.747C541.205 268.402 544.312 262.247 544.312 262.247C542.441 263.414 540.656 264.711 538.968 266.13V266.13Z" fill="#6960C4"/>
<path d="M551.617 226.758C551.969 227.092 552.174 227.552 552.188 228.037C552.626 229.814 552.572 231.676 552.032 233.425C551.53 234.497 550.788 235.441 549.864 236.183C548.857 237.062 547.75 237.819 546.564 238.439" fill="#F2A181"/>
<path d="M565.33 213.239C563.191 213.856 562.061 216.616 561.33 218.506C560.504 220.799 559.966 223.186 559.73 225.611C559.408 227.28 559.528 229.003 560.077 230.611C560.453 231.391 560.923 232.122 561.477 232.786C561.754 233.191 562.093 233.548 562.482 233.845C562.679 233.992 562.908 234.09 563.15 234.131C563.392 234.173 563.64 234.156 563.874 234.082C564.541 233.827 564.809 233.044 564.998 232.356C566.23 227.868 567.578 223.327 570.111 219.423" fill="#170D54"/>
<path d="M562.958 227.452C562.914 226.023 561.411 225.091 560.108 226.571C559.028 227.794 558.741 230.12 558.681 231.838C558.606 233.896 560.201 234.299 561.514 234.588" fill="#F2A181"/>
<path d="M548.675 263.424C551.315 260.398 559.689 255.407 570.884 255.762C578.596 256.005 599.6 257.278 601.947 262.437C603.147 265.075 604.435 292.083 602.678 301.395C601.357 308.395 597.978 325.745 597.978 329.932C597.978 334.119 600.227 335.914 599.178 337.132C596.827 339.855 580.756 340.997 573.21 340.997C566.495 340.997 555.064 339.207 554.484 337.055C553.624 333.863 555.795 333.981 556.089 330.633C556.383 327.285 557.229 305.554 555.998 301.998C553.774 295.576 552.698 285.104 550.928 280.354C549.587 276.748 546.038 266.45 548.675 263.424Z" fill="#7A74D1"/>
<path d="M596.775 285.275C597.575 286.941 603.01 295.681 603.01 295.681L603.23 296.728C603.131 298.293 602.947 299.852 602.678 301.397C601.357 308.397 597.978 325.747 597.978 329.934C597.978 334.121 600.132 335.834 599.178 337.134C597.325 339.645 567.02 345.292 568.512 338.28C568.647 337.647 593.946 318.343 594.081 317.695C595.246 312.156 596.264 308.164 596.775 304.124C598.005 294.399 595.975 283.609 596.775 285.275Z" fill="#6960C4"/>
<path d="M564.78 246.101C564.78 246.101 564.709 254.887 564.356 255.242C563.694 255.694 562.994 256.087 562.265 256.418C562.265 256.418 563.503 264.053 565.416 263.486C567.329 262.919 579.965 256.539 579.965 256.539C579.965 256.539 578.172 255.81 578.172 255.102C578.172 254.394 579.872 240.576 579.872 240.576" fill="#FFBE9D"/>
<path d="M573.564 214.188C571.722 214.688 566.87 213.688 565.53 215.694C564.19 217.7 563.019 222.556 562.516 223.894C561.516 226.559 560.865 229.408 560.14 232.156C559.193 235.737 557.633 242.296 561.14 245.291C561.862 246.036 562.812 246.519 563.84 246.663C565.499 246.963 567.149 247.304 568.808 247.601C571.379 248.062 574.225 248.6 576.779 247.77C580.19 246.663 582.059 241.971 582.937 238.79L587.957 220.546L573.564 214.188Z" fill="#FFBE9D"/>
<path d="M564.472 266.912C564.472 266.912 563.733 301.194 562.337 322.049L567.38 329.001L570.844 320.294C571.538 302.515 570.44 284.711 567.567 267.151L564.472 266.912Z" fill="#3B2E7A"/>
<path d="M563.312 263.9L563.43 264.371C563.654 265.264 564.005 266.119 564.473 266.911V266.911L567.568 267.15C567.568 267.15 569.668 266.05 569.948 264.863C570.228 263.676 566.496 261.739 566.496 261.739L566.043 261.915C564.997 262.327 564.071 262.993 563.349 263.853L563.312 263.9Z" fill="#3B2E7A"/>
<path d="M578.393 252.963C579.792 253.912 580.991 255.127 581.922 256.539C580.331 260.178 576.736 266.639 572.775 269.588C571.475 266.425 569.296 263.701 566.496 261.739C566.496 261.739 577.286 259.817 578.393 252.963Z" fill="white"/>
<path d="M566.492 261.74C563.857 262.963 561.696 265.017 560.34 267.587C559.94 263.949 560.224 260.269 561.175 256.735C561.175 256.735 563.709 253.493 564.585 253.426C564.505 256.314 565.161 259.175 566.492 261.74V261.74Z" fill="white"/>
<path d="M566.982 338.276C563.15 338.853 561.734 340.276 559.573 342.411C559.473 342.485 559.392 342.582 559.336 342.692C559.28 342.803 559.251 342.925 559.25 343.049C559.3 343.354 559.66 343.489 559.966 343.539C561.746 343.826 562.035 342.688 563.698 341.994C564.822 341.525 565.937 341.038 567.054 340.553" fill="#F2A181"/>
<path d="M553.971 310.354L567.552 353.874C567.657 354.112 567.7 354.373 567.678 354.632C567.656 354.891 567.569 355.14 567.426 355.357C567.283 355.574 567.088 355.752 566.859 355.874C566.629 355.996 566.373 356.059 566.113 356.057L537.779 358.543C537.244 358.517 536.73 358.328 536.306 358C535.881 357.673 535.567 357.224 535.405 356.713L520.805 313.855C520.439 312.688 522.126 311.018 523.264 311.01L551.598 308.524C552.133 308.551 552.647 308.741 553.072 309.068C553.496 309.395 553.81 309.844 553.971 310.354V310.354Z" fill="#E9E6FF"/>
<path d="M553.04 311.49L566.43 354.34C566.535 354.578 566.578 354.839 566.556 355.098C566.534 355.357 566.448 355.606 566.305 355.824C566.162 356.041 565.967 356.219 565.737 356.341C565.508 356.464 565.252 356.527 564.992 356.525L536.657 359.011C536.122 358.984 535.608 358.794 535.184 358.467C534.759 358.14 534.445 357.69 534.284 357.179L520.894 314.331C520.789 314.093 520.745 313.832 520.767 313.573C520.789 313.314 520.875 313.064 521.019 312.847C521.162 312.63 521.357 312.452 521.586 312.33C521.816 312.207 522.072 312.144 522.332 312.146L550.664 309.66C551.2 309.687 551.714 309.876 552.139 310.203C552.564 310.53 552.878 310.979 553.04 311.49Z" fill="#E0D9FF"/>
<path d="M530.406 310.1L531.411 313.857L544.663 312.686L543.573 308.945L530.406 310.1Z" fill="white"/>
<path d="M532.915 306.609C533.189 307.483 534.242 310.859 534.242 310.859L540.569 310.273L539.242 306.024C538.965 305.132 538.406 304.355 537.648 303.809C536.89 303.264 535.976 302.98 535.042 303C534.635 303.039 534.244 303.174 533.899 303.393C533.555 303.613 533.267 303.911 533.059 304.263C532.852 304.615 532.731 305.011 532.706 305.419C532.681 305.826 532.752 306.234 532.915 306.609V306.609ZM534.315 306.522C534.224 306.312 534.184 306.083 534.198 305.854C534.212 305.625 534.28 305.403 534.396 305.205C534.513 305.008 534.674 304.841 534.868 304.718C535.061 304.595 535.281 304.519 535.509 304.497C536.033 304.487 536.546 304.647 536.97 304.954C537.395 305.261 537.709 305.697 537.864 306.197C537.956 306.407 537.996 306.636 537.982 306.865C537.968 307.094 537.9 307.316 537.784 307.514C537.667 307.712 537.505 307.879 537.312 308.002C537.118 308.125 536.898 308.2 536.67 308.222C536.146 308.232 535.634 308.072 535.209 307.765C534.785 307.458 534.472 307.022 534.317 306.521L534.315 306.522Z" fill="white"/>
<path d="M577.778 335.238C574.806 335.857 566.884 338.221 566.051 338.613C564.259 339.704 562.568 340.954 561 342.347C558.02 345.338 559.544 346.731 558.368 350.788C558.314 350.998 558.289 351.214 558.295 351.43C558.295 351.852 558.866 352.217 559.441 351.823C559.753 352.346 560.673 352.023 561.119 351.453C561.111 351.858 561.678 352.113 562.589 351.609C563.081 351.337 562.989 351.362 564.132 350.346C565.095 349.526 566.183 348.863 567.355 348.383C568.438 347.983 569.489 347.502 570.502 346.946C571.702 346.155 573.85 345.966 574.909 342.53C575.249 341.803 575.834 341.219 576.562 340.879L581.405 337.842" fill="#FFBE9D"/>
<path d="M596.042 279.488C597.303 283.983 602.542 315.127 602.542 315.127L573.01 336.515L575.467 342.974C575.467 342.974 610.802 331.11 613.586 323C616.37 314.89 616.24 278.256 606.427 265.4C603.303 261.308 597.043 259.244 597.043 259.244" fill="#7A74D1"/>
<path d="M565.753 346.451C565.03 346.932 564.341 347.463 563.69 348.038C562.847 348.927 562.214 349.911 561.311 350.975" stroke="#F2A181" stroke-width="0.25" stroke-miterlimit="10"/>
<path d="M564.125 344.495C563.143 345.324 562.318 346.324 561.691 347.446C561.112 348.726 560.465 349.975 559.753 351.187" stroke="#F2A181" stroke-width="0.25" stroke-miterlimit="10"/>
<path d="M562.259 342.912C561.972 343.371 560.759 344.512 560.512 344.993C559.736 346.512 559.17 348.13 558.83 349.801" stroke="#F2A181" stroke-width="0.25" stroke-miterlimit="10"/>
<path d="M584.814 235.629C583.657 234.952 582.77 234.237 582.014 235.347C581.614 235.935 581.372 236.747 580.691 236.947C580.341 237 579.984 236.915 579.695 236.71C579.406 236.505 579.208 236.195 579.142 235.847C579.039 235.142 579.127 234.423 579.397 233.764C579.864 232.269 580.328 230.773 580.79 229.276C581.245 227.812 581.698 226.202 581.116 224.781C580.794 224.073 580.308 223.451 579.699 222.966C577.689 221.416 575.318 220.402 572.808 220.019C570.314 219.639 567.84 219.13 565.397 218.495C564.371 218.213 563.411 217.73 562.572 217.074C561.936 216.496 561.429 215.791 561.085 215.004C560.74 214.217 560.565 213.366 560.572 212.507C560.602 210.783 561.103 209.1 562.022 207.641C562.204 208.23 562.452 208.797 562.762 209.33C563.066 208.54 563.526 207.82 564.114 207.212C564.835 211.231 581.756 209.887 585.708 211.661C588.45 212.888 590.716 213.692 590.633 218.133C590.743 218.413 590.929 218.658 591.169 218.839C593.597 221.07 594.65 223.784 594.953 227.811C595.327 232.742 592.453 238.077 589.642 242.142C589.101 243.094 588.393 243.94 587.552 244.642C586.4 245.421 584.996 245.738 583.62 245.531C582.401 245.298 579.996 245.402 579.973 244.16C579.956 243.271 581.857 241.686 582.382 240.97" fill="#3B2E7A"/>
<path d="M580.384 240.286C580.291 240.589 580.294 240.914 580.391 241.216C580.489 241.518 580.677 241.783 580.93 241.975C581.183 242.166 581.488 242.276 581.806 242.288C582.123 242.301 582.436 242.216 582.704 242.045C583.58 241.711 584.354 241.153 584.946 240.426C585.539 239.699 585.93 238.829 586.081 237.904C586.481 235.771 585.333 233.64 583.381 234.195C582.819 234.411 582.339 234.798 582.008 235.301C581.678 235.805 581.513 236.399 581.539 237.001" fill="#FFBE9D"/>
<path d="M564.793 246.849L570.222 247.849C569.486 248.536 568.62 249.069 567.676 249.417C566.732 249.766 565.727 249.922 564.722 249.878" fill="#F2A181"/>
<g opacity="0.3">
<g opacity="0.3">
<path opacity="0.3" d="M138.637 153.788L145.909 157.448L142.273 148.526" fill="#3939D3"/>
</g>
<path opacity="0.3" d="M116.075 142.381C116.075 150.392 122.956 156.887 131.444 156.887C139.932 156.887 146.814 150.392 146.814 142.381C146.814 134.37 139.931 127.876 131.444 127.876C122.957 127.876 116.075 134.371 116.075 142.381Z" fill="#3939D3"/>
<path opacity="0.3" d="M127.682 137.617V147.985C127.681 148.175 127.732 148.363 127.827 148.528C127.922 148.694 128.059 148.831 128.225 148.926C128.39 149.022 128.577 149.072 128.768 149.072C128.959 149.072 129.146 149.021 129.312 148.926L138.291 143.742C138.456 143.646 138.593 143.509 138.689 143.344C138.784 143.179 138.835 142.991 138.835 142.801C138.835 142.61 138.784 142.422 138.689 142.257C138.593 142.092 138.456 141.955 138.291 141.86L129.312 136.676C129.146 136.58 128.959 136.53 128.768 136.53C128.578 136.53 128.39 136.581 128.225 136.676C128.06 136.771 127.923 136.908 127.827 137.073C127.732 137.239 127.682 137.426 127.682 137.617Z" fill="#FEFEFE"/>
</g>
<g opacity="0.3">
<g opacity="0.3">
<path opacity="0.3" d="M641.67 264.078L634.398 267.738L638.034 258.816" fill="#3939D3"/>
</g>
<path opacity="0.3" d="M664.234 252.672C664.234 260.683 657.353 267.177 648.864 267.177C640.375 267.177 633.494 260.682 633.494 252.672C633.494 244.662 640.375 238.172 648.864 238.172C657.353 238.172 664.234 244.662 664.234 252.672Z" fill="#3939D3"/>
<g opacity="0.3">
<g opacity="0.3">
<path opacity="0.3" d="M646.116 259.616C649.466 259.67 652.858 259.716 655.938 259.516C656.912 259.452 657.755 257.989 656.571 257.528C657.09 257.361 657.526 257.004 657.792 256.528C657.845 256.404 657.872 256.27 657.87 256.135C657.869 256 657.839 255.867 657.783 255.744C657.727 255.621 657.646 255.511 657.546 255.421C657.445 255.332 657.327 255.264 657.198 255.222C658.361 255.494 658.818 253.754 657.912 253.193C658.406 252.832 658.754 252.306 658.892 251.71C658.948 251.412 658.91 251.105 658.784 250.83C658.657 250.555 658.447 250.327 658.184 250.177C657.803 250.018 657.39 249.949 656.977 249.977C655.584 249.969 654.191 249.959 652.798 249.948C653.176 247.892 653.288 245.648 652.181 243.842C651.846 243.298 650.951 242.642 650.239 243.065C649.572 243.458 649.757 244.434 649.79 245.048C649.825 246.357 649.486 247.648 648.813 248.771C648.14 249.893 647.161 250.801 645.99 251.387C645.99 251.387 646.152 256.839 646.116 259.616Z" fill="#FEFEFE"/>
</g>
<path opacity="0.3" d="M644.903 251.389H639.84V259.613H644.903V251.389Z" fill="#FEFEFE"/>
</g>
</g>
<g opacity="0.3">
<g opacity="0.3">
<path opacity="0.3" d="M409.056 138.202L414.361 132.47L407.091 133.894" fill="#3939D3"/>
</g>
<path opacity="0.3" d="M389.401 139.533C389.401 145.342 394.392 150.051 400.548 150.051C406.704 150.051 411.693 145.343 411.693 139.533C411.693 133.723 406.702 129.015 400.548 129.015C394.394 129.015 389.401 133.723 389.401 139.533Z" fill="#3939D3"/>
<g opacity="0.3">
<g opacity="0.3">
<path opacity="0.3" d="M398.411 144.571C400.611 144.608 402.827 144.642 404.846 144.494C405.486 144.448 406.036 143.394 405.261 143.053C405.611 142.923 405.898 142.664 406.061 142.328C406.135 142.151 406.135 141.952 406.063 141.775C405.99 141.597 405.85 141.456 405.673 141.381C406.435 141.581 406.734 140.316 406.14 139.908C406.472 139.635 406.698 139.256 406.782 138.834C406.822 138.624 406.799 138.407 406.717 138.209C406.635 138.011 406.497 137.842 406.319 137.721C406.072 137.608 405.8 137.559 405.528 137.58L402.791 137.557C403.152 136.078 403.011 134.52 402.391 133.129C402.171 132.734 401.585 132.263 401.118 132.566C400.682 132.851 400.802 133.559 400.825 134.005C400.866 134.926 400.656 135.84 400.217 136.65C399.779 137.46 399.128 138.136 398.335 138.605C398.335 138.605 398.434 142.554 398.411 144.571Z" fill="#FEFEFE"/>
</g>
<path opacity="0.3" d="M397.616 138.602H394.299V144.566H397.616V138.602Z" fill="#FEFEFE"/>
</g>
</g>
<g opacity="0.3">
<path opacity="0.3" d="M460.953 61.3172C463.524 58.0839 464.78 54 464.472 49.8809C464.163 45.7618 462.312 41.9108 459.288 39.0969C456.264 36.283 452.29 34.7133 448.159 34.7012C444.029 34.6892 440.046 36.2358 437.005 39.0321C433.965 41.8283 432.092 45.6686 431.759 49.7858C431.426 53.903 432.659 57.9941 435.211 61.2423C437.762 64.4905 441.446 66.6565 445.524 67.3079C449.603 67.9593 453.778 67.048 457.214 64.7562L463.582 68.1562L460.953 61.3172Z" fill="#3939D3"/>
<path opacity="0.3" d="M441.167 46.5768C441.543 46.2075 441.989 45.9161 442.478 45.7191C442.967 45.5221 443.49 45.4235 444.018 45.4289C444.545 45.4343 445.066 45.5436 445.551 45.7505C446.036 45.9574 446.476 46.2579 446.845 46.6348L447.869 47.6798L448.922 46.6438C449.296 46.2667 449.741 45.9675 450.232 45.7638C450.722 45.56 451.248 45.4556 451.78 45.4566C452.311 45.4577 452.837 45.5641 453.326 45.7698C453.816 45.9755 454.26 46.2764 454.633 46.6549C455.006 47.0335 455.3 47.4823 455.498 47.9752C455.696 48.4682 455.794 48.9955 455.786 49.5267C455.779 50.0579 455.666 50.5823 455.455 51.0697C455.244 51.557 454.938 51.9976 454.555 52.3658L450.655 56.2128L450.632 56.2398C449.871 56.9846 448.845 57.3966 447.78 57.3854C446.715 57.3741 445.699 56.9405 444.954 56.1798L441.111 52.2568C440.741 51.8802 440.449 51.4346 440.252 50.9453C440.055 50.456 439.956 49.9327 439.962 49.4052C439.967 48.8777 440.076 48.3564 440.283 47.8711C440.489 47.3857 440.79 46.9459 441.167 46.5768Z" fill="white"/>
</g>
</g>
<defs>
<clipPath id="clip0">
<rect width="711.742" height="549.131" fill="white"/>
</clipPath>
</defs>
</svg>
